<svg width="20" height="20" viewBox="0 0 20 20" fill="none" xmlns="http://www.w3.org/2000/svg">
<path d="M14.1666 12.7042V18.4308C14.1666 18.5046 14.1471 18.577 14.1099 18.6407C14.0728 18.7044 14.0195 18.7571 13.9554 18.7934C13.8912 18.8298 13.8186 18.8484 13.7449 18.8476C13.6711 18.8467 13.599 18.8262 13.5358 18.7883L9.99992 16.6667L6.46409 18.7883C6.40079 18.8263 6.32855 18.8467 6.25476 18.8476C6.18098 18.8484 6.10828 18.8297 6.04412 18.7932C5.97996 18.7568 5.92663 18.7039 5.88958 18.6401C5.85253 18.5763 5.83309 18.5038 5.83325 18.43V12.705C4.75504 11.8417 3.97158 10.6649 3.59113 9.33711C3.21069 8.00933 3.25205 6.59616 3.70949 5.29289C4.16694 3.98963 5.01789 2.86062 6.14474 2.0619C7.27159 1.26317 8.6187 0.834167 9.99992 0.834167C11.3811 0.834167 12.7282 1.26317 13.8551 2.0619C14.9819 2.86062 15.8329 3.98963 16.2903 5.29289C16.7478 6.59616 16.7891 8.00933 16.4087 9.33711C16.0283 10.6649 15.2448 11.8417 14.1666 12.705V12.7042ZM9.99992 12.5C11.326 12.5 12.5978 11.9732 13.5355 11.0355C14.4731 10.0978 14.9999 8.82608 14.9999 7.5C14.9999 6.17392 14.4731 4.90215 13.5355 3.96447C12.5978 3.02678 11.326 2.5 9.99992 2.5C8.67384 2.5 7.40207 3.02678 6.46439 3.96447C5.5267 4.90215 4.99992 6.17392 4.99992 7.5C4.99992 8.82608 5.5267 10.0978 6.46439 11.0355C7.40207 11.9732 8.67384 12.5 9.99992 12.5ZM9.99992 10.8333C9.11586 10.8333 8.26802 10.4821 7.6429 9.85702C7.01777 9.2319 6.66659 8.38405 6.66659 7.5C6.66659 6.61594 7.01777 5.7681 7.6429 5.14298C8.26802 4.51785 9.11586 4.16667 9.99992 4.16667C10.884 4.16667 11.7318 4.51785 12.3569 5.14298C12.9821 5.7681 13.3333 6.61594 13.3333 7.5C13.3333 8.38405 12.9821 9.2319 12.3569 9.85702C11.7318 10.4821 10.884 10.8333 9.99992 10.8333Z" fill="white"/>
</svg>
