<svg width="20" height="20" viewBox="0 0 20 20" fill="none" xmlns="http://www.w3.org/2000/svg">
<g clip-path="url(#clip0_1273_3318)">
<path d="M12.9629 6.12534C12.9629 4.49249 11.6345 3.16406 10.0016 3.16406C8.36896 3.16406 7.04053 4.49249 7.04053 6.12534C7.04053 7.75803 8.36881 9.08646 10.0016 9.08646C11.6345 9.08646 12.9629 7.75803 12.9629 6.12534Z" fill="white"/>
<path d="M10.0016 16.4844C10.4605 15.8867 13.1506 12.1896 14.0562 10.9544C15.1333 9.48547 16.127 8.01163 16.127 6.12534C16.127 2.74246 13.3845 0.000152588 10.0016 0.000152588L10.0009 0C6.61786 0 3.87646 2.74231 3.87646 6.12518C3.87646 8.01147 4.86996 9.48547 5.94708 10.9544C6.85284 12.1896 10.0016 16.4844 10.0016 16.4844ZM5.86865 6.12534C5.86865 3.84628 7.72275 1.99219 10.0016 1.99219C12.2807 1.99219 14.1348 3.84628 14.1348 6.12534C14.1348 8.40424 12.2807 10.2583 10.0016 10.2583C7.72275 10.2583 5.86865 8.40424 5.86865 6.12534Z" fill="white"/>
<path d="M12.2508 15.3986C12.1295 15.5643 9.97986 18.4369 9.97986 18.4369L7.75223 15.3986H5.05524L3.32031 20H16.6824L14.9474 15.3986H12.2508Z" fill="white"/>
</g>
<defs>
<clipPath id="clip0_1273_3318">
<rect width="20" height="20" fill="white"/>
</clipPath>
</defs>
</svg>
