<svg width="20" height="20" viewBox="0 0 20 20" fill="none" xmlns="http://www.w3.org/2000/svg">
<path d="M18.999 14.42V17.956C18.9991 18.2092 18.9032 18.453 18.7306 18.6382C18.558 18.8234 18.3216 18.9363 18.0691 18.954C17.6321 18.984 17.2751 19 16.9991 19C8.1626 19 1 11.837 1 3C1 2.724 1.015 2.367 1.046 1.93C1.06372 1.67744 1.17657 1.44101 1.36178 1.26841C1.547 1.09581 1.79078 0.999886 2.04394 1H5.57975C5.70378 0.999875 5.82343 1.04586 5.91546 1.12902C6.00748 1.21218 6.06531 1.32658 6.07772 1.45C6.10072 1.68 6.12172 1.863 6.14171 2.002C6.34044 3.38892 6.74768 4.73783 7.34965 6.003C7.44464 6.203 7.38265 6.442 7.20266 6.57L5.04478 8.112C6.36416 11.1865 8.81411 13.6365 11.8884 14.956L13.4283 12.802C13.4913 12.714 13.5831 12.6509 13.6878 12.6237C13.7925 12.5964 13.9034 12.6068 14.0013 12.653C15.2662 13.2539 16.6147 13.6601 18.0011 13.858C18.14 13.878 18.323 13.9 18.551 13.922C18.6743 13.9346 18.7884 13.9926 18.8714 14.0846C18.9543 14.1766 19.0002 14.2961 19 14.42H18.999Z" fill="white"/>
</svg>
