<svg width="40" height="40" viewBox="0 0 40 40" fill="none" xmlns="http://www.w3.org/2000/svg">
<path fill-rule="evenodd" clip-rule="evenodd" d="M17.5359 18.704C17.1145 18.6953 16.705 18.5624 16.3588 18.3219C16.0127 18.0813 15.7452 17.7439 15.5901 17.352C15.435 16.96 15.3991 16.531 15.4869 16.1187C15.5747 15.7064 15.7823 15.3292 16.0836 15.0345C16.385 14.7398 16.7667 14.5406 17.1808 14.462C17.595 14.3834 18.0231 14.4288 18.4115 14.5926C18.7999 14.7564 19.1313 15.0313 19.3641 15.3827C19.5968 15.7341 19.7206 16.1465 19.7199 16.568C19.7126 17.1405 19.4786 17.6868 19.0692 18.0872C18.6598 18.4875 18.1085 18.7093 17.5359 18.704V18.704Z" fill="white"/>
<path fill-rule="evenodd" clip-rule="evenodd" d="M30.9319 22.28L28.0239 17.96V17.6C28.0239 15.0629 27.0196 12.629 25.2305 10.8301C23.4414 9.03123 21.0129 8.01374 18.4759 8C17.7109 7.99435 16.9485 8.08848 16.2079 8.28C14.1237 8.79014 12.2718 9.98688 10.9505 11.6775C9.62921 13.3682 8.91535 15.4543 8.92388 17.6C8.86813 19.4002 9.36812 21.1739 10.3559 22.68C12.0279 25.08 13.1559 27 12.4639 29.6C12.382 29.8881 12.372 30.1919 12.4347 30.4848C12.4975 30.7777 12.6311 31.0507 12.8239 31.28C12.9932 31.5096 13.2154 31.695 13.4717 31.8204C13.7279 31.9457 14.0107 32.0073 14.2959 32H22.1359C22.5748 32.0028 23.0011 31.8526 23.3412 31.5752C23.6814 31.2978 23.9143 30.9105 23.9999 30.48C24.046 30.3238 24.0729 30.1627 24.0799 30C24.1156 29.7736 24.2321 29.5678 24.4079 29.4208C24.5837 29.2737 24.8067 29.1953 25.0359 29.2H25.5999C26.0186 29.2131 26.4297 29.0866 26.7686 28.8404C27.1075 28.5942 27.3549 28.2422 27.4719 27.84C27.8195 26.5877 28.0182 25.2988 28.0639 24H30.1319C30.3204 23.977 30.4999 23.9061 30.6532 23.7941C30.8066 23.682 30.9287 23.5326 31.0079 23.36C31.0854 23.1877 31.119 22.9989 31.1057 22.8104C31.0925 22.622 31.0327 22.4397 30.9319 22.28V22.28ZM22.9959 18.932L22.5959 19.56C22.516 19.6733 22.4107 19.7663 22.2885 19.8315C22.1663 19.8968 22.0304 19.9326 21.8919 19.936C21.7931 19.9298 21.696 19.9082 21.6039 19.872L20.5439 19.472C20.0917 19.8613 19.5689 20.1601 19.0039 20.352L18.8119 21.516C18.7786 21.7031 18.6799 21.8723 18.5333 21.9932C18.3867 22.1141 18.2019 22.1789 18.0119 22.176H17.2119C17.0219 22.1789 16.837 22.1141 16.6904 21.9932C16.5439 21.8723 16.4451 21.7031 16.4119 21.516L16.2199 20.352C15.6768 20.1927 15.1737 19.9201 14.7439 19.552L13.6199 19.952C13.5278 19.9882 13.4306 20.0098 13.3319 20.016C13.1903 20.014 13.0516 19.9764 12.9285 19.9064C12.8054 19.8365 12.702 19.7366 12.6279 19.616L12.2279 18.956C12.1328 18.7938 12.0999 18.6026 12.1352 18.4179C12.1705 18.2333 12.2717 18.0677 12.4199 17.952L13.3519 17.196C13.2901 16.9175 13.2579 16.6333 13.2559 16.348C13.2592 16.0787 13.2913 15.8105 13.3519 15.548L12.4399 14.752C12.2902 14.6374 12.188 14.4717 12.1526 14.2866C12.1172 14.1014 12.1511 13.9097 12.2479 13.748L12.6479 13.088C12.719 12.9647 12.8218 12.8627 12.9455 12.7924C13.0693 12.722 13.2096 12.686 13.3519 12.688C13.4506 12.6942 13.5478 12.7158 13.6399 12.752L14.7639 13.152C15.1989 12.7801 15.6995 12.4925 16.2399 12.304L16.3999 11.2C16.4329 11.0154 16.5327 10.8493 16.6802 10.7335C16.8277 10.6177 17.0127 10.5602 17.1999 10.572H17.9999C18.1824 10.5598 18.3632 10.6132 18.5098 10.7224C18.6565 10.8317 18.7593 10.9897 18.7999 11.168L18.9919 12.3C19.5295 12.4722 20.0301 12.7436 20.4679 13.1L21.5919 12.7C21.684 12.6638 21.7811 12.6422 21.8799 12.636C22.0214 12.6379 22.1602 12.6756 22.2833 12.7456C22.4063 12.8155 22.5097 12.9154 22.5839 13.036L22.9839 13.696C23.0803 13.8606 23.1148 14.0542 23.0811 14.242C23.0473 14.4298 22.9476 14.5993 22.7999 14.72L21.8679 15.476C21.9314 15.7542 21.9636 16.0386 21.9639 16.324C21.9606 16.5933 21.9284 16.8615 21.8679 17.124L22.7999 17.896C22.9526 18.0156 23.0566 18.1866 23.0927 18.3771C23.1288 18.5677 23.0943 18.7649 22.9959 18.932V18.932Z" fill="white"/>
</svg>
