<svg width="20" height="20" viewBox="0 0 20 20" fill="none" xmlns="http://www.w3.org/2000/svg">
<path d="M2.63675 1.2076C3.34417 0.980476 4.10869 0.93873 4.84143 1.08722C5.57417 1.2357 6.24503 1.56832 6.776 2.04641C7.30698 2.52449 7.67627 3.12839 7.84093 3.7879C8.00559 4.44742 7.95887 5.13545 7.70618 5.772L20 16.8361L17.5945 19L5.3007 7.93688C4.59328 8.16401 3.82876 8.20575 3.09602 8.05726C2.36328 7.90878 1.69243 7.57616 1.16145 7.09808C0.630471 6.62 0.261184 6.01609 0.0965217 5.35658C-0.0681407 4.69707 -0.021414 4.00903 0.23127 3.37248L2.76598 5.65468C2.92284 5.80084 3.11047 5.91742 3.31792 5.99762C3.52538 6.07783 3.7485 6.12004 3.97428 6.12181C4.20006 6.12357 4.42396 6.08485 4.63293 6.00791C4.84191 5.93096 5.03176 5.81733 5.19141 5.67365C5.35107 5.52996 5.47732 5.3591 5.56282 5.17103C5.64832 4.98296 5.69134 4.78145 5.68938 4.57826C5.68742 4.37506 5.64051 4.17426 5.55139 3.98755C5.46228 3.80085 5.33274 3.63199 5.17034 3.49082L2.63562 1.20658L2.63675 1.2076ZM14.3887 3.12967L17.9958 1.32594L19.5987 2.76852L17.5945 6.01481L15.5903 6.37597L13.1871 8.53982L11.5831 7.09725L13.9874 4.93339L14.3887 3.12967ZM6.37308 11.0648L8.77743 13.2297L3.16614 18.2797C2.85671 18.5556 2.44146 18.7141 2.006 18.7225C1.57055 18.7309 1.1481 18.5887 0.825787 18.325C0.503469 18.0614 0.305857 17.6965 0.273702 17.3055C0.241546 16.9146 0.377299 16.5275 0.652966 16.224L0.762925 16.1149L6.37421 11.0648H6.37308Z" fill="white"/>
</svg>
