<svg width="16" height="16" viewBox="0 0 16 16" fill="none" xmlns="http://www.w3.org/2000/svg">
<path d="M9.198 12.613H1.20139C0.538183 12.613 0 13.1512 0 13.8145V15.9991H10.3994V13.8145C10.3994 13.1512 9.86121 12.613 9.198 12.613Z"/>
<path d="M15.784 12.7811L8.48441 5.48151L9.89432 4.07411C10.1268 4.27911 10.4843 4.26909 10.7043 4.04912C10.9343 3.81664 10.9343 3.44414 10.7043 3.21167L7.66448 0.174354C7.43448 -0.0581182 7.0595 -0.0581182 6.82953 0.174354C6.59706 0.404353 6.59706 0.77933 6.82953 1.0093L6.80454 0.984298L2.94475 4.84155L2.96975 4.86902C2.73975 4.63655 2.36477 4.63655 2.1348 4.86902C1.90233 5.09902 1.90233 5.474 2.1348 5.70399L5.17212 8.74378C5.40459 8.97378 5.77957 8.97378 6.00957 8.74378C6.23956 8.51131 6.23956 8.13884 6.00957 7.9064L6.03456 7.93133L7.44447 6.52393L14.7415 13.821C15.029 14.1085 15.4965 14.1085 15.784 13.821C16.0714 13.5335 16.0714 13.0685 15.784 12.7811Z"/>
</svg>
