<svg width="20" height="20" viewBox="0 0 20 20" fill="none" xmlns="http://www.w3.org/2000/svg">
<g clip-path="url(#clip0)">
<path d="M9.86615 9.65584C11.1141 9.65584 12.1947 9.20826 13.0776 8.3252C13.9605 7.44228 14.4081 6.36197 14.4081 5.11391C14.4081 3.86628 13.9605 2.78583 13.0774 1.90262C12.1944 1.01984 11.1139 0.572266 9.86615 0.572266C8.61809 0.572266 7.53778 1.01984 6.65486 1.90276C5.77194 2.78568 5.32422 3.86614 5.32422 5.11391C5.32422 6.36197 5.77194 7.44242 6.655 8.32534C7.53807 9.20812 8.61852 9.65584 9.86615 9.65584Z" />
<path d="M17.8117 15.0724C17.7862 14.7049 17.7347 14.3041 17.6589 13.8809C17.5823 13.4544 17.4838 13.0513 17.3658 12.6829C17.244 12.302 17.0782 11.926 16.8734 11.5656C16.6607 11.1915 16.411 10.8658 16.1307 10.5978C15.8376 10.3174 15.4788 10.0919 15.0639 9.9275C14.6504 9.76392 14.1922 9.68105 13.7021 9.68105C13.5096 9.68105 13.3234 9.76004 12.9639 9.99411C12.7426 10.1384 12.4838 10.3053 12.1949 10.4899C11.9479 10.6473 11.6132 10.7947 11.1999 10.9282C10.7966 11.0587 10.3872 11.1249 9.98306 11.1249C9.57893 11.1249 9.16963 11.0587 8.76593 10.9282C8.35303 10.7949 8.01839 10.6474 7.77165 10.49C7.4855 10.3072 7.22654 10.1403 7.00196 9.99397C6.64286 9.75989 6.45655 9.68091 6.26406 9.68091C5.77375 9.68091 5.31567 9.76392 4.90234 9.92764C4.48771 10.0918 4.12876 10.3172 3.83541 10.5979C3.5553 10.8661 3.3054 11.1917 3.09305 11.5656C2.88832 11.926 2.72259 12.3019 2.60059 12.683C2.48276 13.0515 2.38421 13.4544 2.30767 13.8809C2.23185 14.3035 2.18035 14.7045 2.15488 15.0728C2.12985 15.4336 2.11719 15.8081 2.11719 16.1864C2.11719 17.1707 2.4301 17.9676 3.04715 18.5553C3.65658 19.1352 4.46296 19.4294 5.44357 19.4294H14.5234C15.504 19.4294 16.3101 19.1354 16.9197 18.5553C17.5369 17.968 17.8498 17.171 17.8498 16.1862C17.8496 15.8063 17.8368 15.4315 17.8117 15.0724Z" />
</g>
<defs>
<clipPath id="clip0">
<rect width="18.8571" height="18.8572" transform="translate(0.570312 0.572266)"/>
</clipPath>
</defs>
</svg>
