<svg width="16" height="16" viewBox="0 0 16 16" fill="none" xmlns="http://www.w3.org/2000/svg">
<path d="M11.5875 10.5433V15.6298C11.5875 15.6953 11.5702 15.7596 11.5374 15.8162C11.5045 15.8728 11.4573 15.9196 11.4006 15.9519C11.3438 15.9842 11.2795 16.0008 11.2143 16C11.149 15.9992 11.0852 15.981 11.0292 15.9474L7.9 14.0628L4.77079 15.9474C4.71477 15.9811 4.65084 15.9992 4.58554 16C4.52024 16.0007 4.4559 15.9841 4.39912 15.9517C4.34233 15.9193 4.29514 15.8724 4.26235 15.8157C4.22956 15.759 4.21236 15.6946 4.2125 15.6291V10.544C3.25828 9.77722 2.56492 8.73192 2.22823 7.55254C1.89153 6.37317 1.92813 5.11795 2.33297 3.96036C2.73781 2.80277 3.4909 1.79995 4.48817 1.0905C5.48543 0.381054 6.67763 0 7.9 0C9.12237 0 10.3146 0.381054 11.3118 1.0905C12.3091 1.79995 13.0622 2.80277 13.467 3.96036C13.8719 5.11795 13.9085 6.37317 13.5718 7.55254C13.2351 8.73192 12.5417 9.77722 11.5875 10.544V10.5433ZM7.9 10.3619C9.07358 10.3619 10.1991 9.894 11.0289 9.06113C11.8588 8.22825 12.325 7.09863 12.325 5.92077C12.325 4.74291 11.8588 3.61329 11.0289 2.78041C10.1991 1.94754 9.07358 1.47964 7.9 1.47964C6.72642 1.47964 5.6009 1.94754 4.77105 2.78041C3.9412 3.61329 3.475 4.74291 3.475 5.92077C3.475 7.09863 3.9412 8.22825 4.77105 9.06113C5.6009 9.894 6.72642 10.3619 7.9 10.3619ZM7.9 8.88153C7.11761 8.88153 6.36727 8.56959 5.81403 8.01434C5.2608 7.45909 4.95 6.70601 4.95 5.92077C4.95 5.13553 5.2608 4.38245 5.81403 3.8272C6.36727 3.27195 7.11761 2.96001 7.9 2.96001C8.68239 2.96001 9.43273 3.27195 9.98596 3.8272C10.5392 4.38245 10.85 5.13553 10.85 5.92077C10.85 6.70601 10.5392 7.45909 9.98596 8.01434C9.43273 8.56959 8.68239 8.88153 7.9 8.88153Z" fill="#1374F6"/>
</svg>
