<svg width="16" height="16" viewBox="0 0 16 16" fill="none" xmlns="http://www.w3.org/2000/svg">
<path d="M12.6667 14.6654H3.33333C2.59695 14.6654 2 14.0684 2 13.332V3.9987C2 3.26232 2.59695 2.66536 3.33333 2.66536H4.66667V1.33203H6V2.66536H10V1.33203H11.3333V2.66536H12.6667C13.403 2.66536 14 3.26232 14 3.9987V13.332C14 14.0684 13.403 14.6654 12.6667 14.6654ZM3.33333 6.66536V13.332H12.6667V6.66536H3.33333ZM3.33333 3.9987V5.33203H12.6667V3.9987H3.33333ZM11.3333 11.9987H10V10.6654H11.3333V11.9987ZM8.66667 11.9987H7.33333V10.6654H8.66667V11.9987ZM6 11.9987H4.66667V10.6654H6V11.9987ZM11.3333 9.33203H10V7.9987H11.3333V9.33203ZM8.66667 9.33203H7.33333V7.9987H8.66667V9.33203ZM6 9.33203H4.66667V7.9987H6V9.33203Z"/>
</svg>
