<svg width="16" height="16" viewBox="0 0 16 16" fill="none" xmlns="http://www.w3.org/2000/svg">
<path d="M6.00016 2H10.0002L11.3335 3.33333H14.0002C14.177 3.33333 14.3465 3.40357 14.4716 3.5286C14.5966 3.65362 14.6668 3.82319 14.6668 4V13.3333C14.6668 13.5101 14.5966 13.6797 14.4716 13.8047C14.3465 13.9298 14.177 14 14.0002 14H2.00016C1.82335 14 1.65378 13.9298 1.52876 13.8047C1.40373 13.6797 1.3335 13.5101 1.3335 13.3333V4C1.3335 3.82319 1.40373 3.65362 1.52876 3.5286C1.65378 3.40357 1.82335 3.33333 2.00016 3.33333H4.66683L6.00016 2ZM8.00016 12.6667C9.06103 12.6667 10.0784 12.2452 10.8286 11.4951C11.5787 10.7449 12.0002 9.72753 12.0002 8.66667C12.0002 7.6058 11.5787 6.58839 10.8286 5.83824C10.0784 5.08809 9.06103 4.66667 8.00016 4.66667C6.9393 4.66667 5.92188 5.08809 5.17174 5.83824C4.42159 6.58839 4.00016 7.6058 4.00016 8.66667C4.00016 9.72753 4.42159 10.7449 5.17174 11.4951C5.92188 12.2452 6.9393 12.6667 8.00016 12.6667ZM8.00016 11.3333C7.29292 11.3333 6.61464 11.0524 6.11454 10.5523C5.61445 10.0522 5.3335 9.37391 5.3335 8.66667C5.3335 7.95942 5.61445 7.28115 6.11454 6.78105C6.61464 6.28095 7.29292 6 8.00016 6C8.70741 6 9.38568 6.28095 9.88578 6.78105C10.3859 7.28115 10.6668 7.95942 10.6668 8.66667C10.6668 9.37391 10.3859 10.0522 9.88578 10.5523C9.38568 11.0524 8.70741 11.3333 8.00016 11.3333Z" fill="#7D7D7D" fill-opacity="0.68"/>
</svg>
