<svg width="16" height="16" viewBox="0 0 16 16" fill="none" xmlns="http://www.w3.org/2000/svg">
<path d="M13.0569 13.9997H1.99956C1.82274 13.9997 1.65318 13.9294 1.52815 13.8044C1.40313 13.6794 1.33289 13.5098 1.33289 13.333V3.99968C1.33289 3.82287 1.40313 3.6533 1.52815 3.52827C1.65318 3.40325 1.82274 3.33301 1.99956 3.33301H2.39022L0.928223 1.87168L1.87156 0.928345L15.0709 14.1283L14.1276 15.071L13.0569 13.9997ZM5.03689 5.97968C4.34745 6.74058 3.97702 7.73746 4.0023 8.76394C4.02757 9.79041 4.44661 10.7679 5.17266 11.4939C5.8987 12.22 6.87615 12.639 7.90263 12.6643C8.9291 12.6895 9.92599 12.3191 10.6869 11.6297L9.74222 10.685C9.23251 11.1257 8.57486 11.3571 7.90149 11.3327C7.22812 11.3083 6.58895 11.0299 6.1125 10.5534C5.63604 10.0769 5.35761 9.43778 5.3332 8.76441C5.30878 8.09104 5.54019 7.43339 5.98089 6.92368L5.03622 5.97968H5.03689ZM14.6662 11.8563L11.9696 9.15968C12.0447 8.55558 11.981 7.94229 11.7833 7.36654C11.5856 6.79079 11.2591 6.26776 10.8286 5.8373C10.3981 5.40685 9.87511 5.08032 9.29936 4.88259C8.72361 4.68487 8.11032 4.62117 7.50622 4.69634L5.40356 2.59434L5.99956 1.99968H9.99956L11.3329 3.33301H13.9996C14.1764 3.33301 14.3459 3.40325 14.471 3.52827C14.596 3.6533 14.6662 3.82287 14.6662 3.99968V11.857V11.8563ZM9.00489 6.19501C9.33431 6.32954 9.63359 6.52843 9.8852 6.78004C10.1368 7.03165 10.3357 7.33092 10.4702 7.66034L9.00489 6.19501Z" fill="#7D7D7D" fill-opacity="0.68"/>
</svg>
