<svg width="20" height="20" viewBox="0 0 20 20" fill="none" xmlns="http://www.w3.org/2000/svg">
<g clip-path="url(#clip0_1623_2671)">
<path d="M10.9771 0V0.0200495V2.02501C15.378 2.56634 18.4957 6.56623 17.9544 10.9671C17.4932 14.6161 14.6262 17.5133 10.9771 17.9444V19.9493C16.4908 19.398 20.5007 14.5059 19.9493 8.99223C19.4982 4.23046 15.7189 0.471165 10.9771 0ZM8.97218 0.0300743C7.01735 0.220545 5.15274 0.972404 3.62897 2.23553L5.06252 3.71919C6.18529 2.81696 7.53864 2.23553 8.97218 2.03503V0.0300743ZM2.21548 3.64902C0.952355 5.17279 0.200496 7.02737 0 8.99223H2.00496C2.19543 7.56871 2.75682 6.21537 3.64902 5.08256L2.21548 3.64902ZM13.4833 6.48604L8.59124 11.3781L6.46598 9.25288L5.40336 10.3155L8.59124 13.5034L14.546 7.54866L13.4833 6.48604ZM0.0100248 10.9972C0.21052 12.962 0.982429 14.8166 2.2255 16.3404L3.64902 14.9069C2.76684 13.7741 2.19543 12.4207 2.01498 10.9972H0.0100248ZM5.06252 16.3805L3.62897 17.7539C5.14271 19.017 7.00732 19.809 8.97218 20.0195V18.0145C7.54866 17.8341 6.19532 17.2627 5.06252 16.3805Z" />
</g>
<defs>
<clipPath id="clip0_1623_2671">
<rect width="20" height="20" />
</clipPath>
</defs>
</svg>
