<svg width="20" height="20" viewBox="0 0 20 20" fill="none" xmlns="http://www.w3.org/2000/svg">
<path fill-rule="evenodd" clip-rule="evenodd" d="M10.065 -3.04651e-08C15.5542 0.035 20 4.5025 20 10C20 15.5192 15.5192 20 10 20C4.48083 20 -4.69738e-08 15.5192 -3.02683e-08 10C3.23917 10.9058 6.15667 8.00583 5 5C8.33583 5.58917 10.655 2.73167 10.065 -3.04651e-08ZM11.25 14.1667C11.94 14.1667 12.5 14.7267 12.5 15.4167C12.5 16.1067 11.94 16.6667 11.25 16.6667C10.56 16.6667 10 16.1067 10 15.4167C10 14.7267 10.56 14.1667 11.25 14.1667ZM5.5525 11.6667C6.4725 11.6667 7.21917 12.4133 7.21917 13.3333C7.21917 14.2533 6.4725 15 5.5525 15C4.6325 15 3.88583 14.2533 3.88583 13.3333C3.88583 12.4133 4.6325 11.6667 5.5525 11.6667ZM15 9.16667C15.92 9.16667 16.6667 9.91333 16.6667 10.8333C16.6667 11.7533 15.92 12.5 15 12.5C14.08 12.5 13.3333 11.7533 13.3333 10.8333C13.3333 9.91333 14.08 9.16667 15 9.16667ZM10 8.33333C10.46 8.33333 10.8333 8.70667 10.8333 9.16667C10.8333 9.62667 10.46 10 10 10C9.54 10 9.16667 9.62667 9.16667 9.16667C9.16667 8.70667 9.54 8.33333 10 8.33333ZM2.5 5.83333C2.96 5.83333 3.33333 6.20667 3.33333 6.66667C3.33333 7.12667 2.96 7.5 2.5 7.5C2.04 7.5 1.66667 7.12667 1.66667 6.66667C1.66667 6.20667 2.04 5.83333 2.5 5.83333ZM13.75 4.16667C14.44 4.16667 15 4.72667 15 5.41667C15 6.10667 14.44 6.66667 13.75 6.66667C13.06 6.66667 12.5 6.10667 12.5 5.41667C12.5 4.72667 13.06 4.16667 13.75 4.16667ZM1.25 2.5C1.94 2.5 2.5 3.06 2.5 3.75C2.5 4.44 1.94 5 1.25 5C0.56 5 -1.34391e-08 4.44 -1.13506e-08 3.75C-9.26209e-09 3.06 0.56 2.5 1.25 2.5ZM6.25 0.833333C6.94 0.833333 7.5 1.39333 7.5 2.08333C7.5 2.77333 6.94 3.33333 6.25 3.33333C5.56 3.33333 5 2.77333 5 2.08333C5 1.39333 5.56 0.833333 6.25 0.833333ZM3.33333 -1.00894e-08C3.79333 -1.14818e-08 4.16667 0.373333 4.16667 0.833333C4.16667 1.29333 3.79333 1.66667 3.33333 1.66667C2.87333 1.66667 2.5 1.29333 2.5 0.833333C2.5 0.373333 2.87333 -8.6971e-09 3.33333 -1.00894e-08Z" />
</svg>
