<svg width="16" height="16" viewBox="0 0 16 16" fill="none" xmlns="http://www.w3.org/2000/svg">
<path fill-rule="evenodd" clip-rule="evenodd" d="M4.19526 4.19526C4.45561 3.93491 4.87772 3.93491 5.13807 4.19526L8 7.05719L10.8619 4.19526C11.1223 3.93491 11.5444 3.93491 11.8047 4.19526C12.0651 4.45561 12.0651 4.87772 11.8047 5.13807L8.4714 8.47141C8.21105 8.73176 7.78894 8.73176 7.5286 8.47141L4.19526 5.13807C3.93491 4.87772 3.93491 4.45561 4.19526 4.19526Z" fill="#9E9E9E"/>
<path fill-rule="evenodd" clip-rule="evenodd" d="M11.8047 12.4708C11.5444 12.7311 11.1223 12.7311 10.8619 12.4708L8 9.60882L5.13807 12.4708C4.87772 12.7311 4.45561 12.7311 4.19526 12.4708C3.93491 12.2104 3.93491 11.7883 4.19526 11.5279L7.5286 8.19461C7.78895 7.93426 8.21106 7.93426 8.4714 8.19461L11.8047 11.5279C12.0651 11.7883 12.0651 12.2104 11.8047 12.4708Z" fill="#9E9E9E"/>
</svg>
