<svg width="14" height="14" viewBox="0 0 14 14" fill="none" xmlns="http://www.w3.org/2000/svg">
<path d="M10.333 2.99992H13.6663V4.33325H12.333V12.9999C12.333 13.1767 12.2628 13.3463 12.1377 13.4713C12.0127 13.5963 11.8432 13.6666 11.6663 13.6666H2.33301C2.1562 13.6666 1.98663 13.5963 1.8616 13.4713C1.73658 13.3463 1.66634 13.1767 1.66634 12.9999V4.33325H0.333008V2.99992H3.66634V0.999919C3.66634 0.823108 3.73658 0.653538 3.8616 0.528514C3.98663 0.40349 4.1562 0.333252 4.33301 0.333252H9.66634C9.84315 0.333252 10.0127 0.40349 10.1377 0.528514C10.2628 0.653538 10.333 0.823108 10.333 0.999919V2.99992ZM10.9997 4.33325H2.99967V12.3333H10.9997V4.33325ZM4.99967 6.33325H6.33301V10.3333H4.99967V6.33325ZM7.66634 6.33325H8.99967V10.3333H7.66634V6.33325ZM4.99967 1.66659V2.99992H8.99967V1.66659H4.99967Z"/>
</svg>
