<svg width="14" height="16" viewBox="0 0 14 16" fill="none" xmlns="http://www.w3.org/2000/svg">
<path d="M12.4565 0H5.81783V4.50413C5.81783 4.80225 5.57615 5.04394 5.27802 5.04394H0.773895V15.2288C0.773895 15.6547 1.11918 16 1.54505 16H12.4565C12.8824 16 13.2276 15.6547 13.2276 15.2288V0.771156C13.2276 0.345281 12.8824 0 12.4565 0ZM9.41702 12.8051H5.02183C4.72371 12.8051 4.48202 12.5634 4.48202 12.2653C4.48202 11.9672 4.72371 11.7255 5.02183 11.7255H9.41702C9.71515 11.7255 9.95683 11.9672 9.95683 12.2653C9.95683 12.5634 9.71515 12.8051 9.41702 12.8051ZM9.41702 10.2657H5.02183C4.72371 10.2657 4.48202 10.024 4.48202 9.72587C4.48202 9.42775 4.72371 9.18606 5.02183 9.18606H9.41702C9.71515 9.18606 9.95683 9.42775 9.95683 9.72587C9.95683 10.024 9.71515 10.2657 9.41702 10.2657ZM9.41702 7.72634H5.02183C4.72371 7.72634 4.48202 7.48466 4.48202 7.18653C4.48202 6.88841 4.72371 6.64672 5.02183 6.64672H9.41702C9.71515 6.64672 9.95683 6.88841 9.95683 7.18653C9.95683 7.48466 9.71515 7.72634 9.41702 7.72634Z" fill="#1374F6"/>
<path d="M4.7316 0C4.5271 0 4.33098 0.0812187 4.18635 0.225906L0.999695 3.41244C0.85507 3.55706 0.773788 3.75319 0.773788 3.95769V3.96428H4.73816V0H4.7316Z" fill="#1374F6"/>
</svg>
