<svg width="7" height="16" viewBox="0 0 7 16" fill="none" xmlns="http://www.w3.org/2000/svg">
<path d="M2.38263 1.17823V2.48218C1.03895 2.95374 0.0737125 4.22419 0.0737125 5.71435C0.0737125 7.59793 1.61584 9.13185 3.51611 9.14256C4.10337 9.14614 4.61802 9.57572 4.68387 10.1536C4.76235 10.8426 4.21749 11.4285 3.53686 11.4285C3.04973 11.4285 2.52425 11.1288 2.05516 10.5845C1.68756 10.1571 1.05655 10.0254 0.569865 10.313C-0.0593464 10.685 -0.180227 11.5035 0.27082 12.0349C0.887854 12.7615 1.61359 13.2679 2.38263 13.5233V14.8214C2.38263 15.3939 2.79308 15.9061 3.36546 15.9878C4.07902 16.0892 4.69109 15.5439 4.69109 14.8571V13.5175C6.03476 13.0459 7 11.7755 7 10.2853C7 8.40173 5.45787 6.86825 3.5576 6.85709C2.97034 6.85352 2.4557 6.42393 2.38984 5.84609C2.31136 5.15705 2.85623 4.57117 3.53686 4.57117C3.93648 4.57117 4.35821 4.76855 4.75784 5.14276C5.17235 5.52992 5.81104 5.60718 6.26885 5.27092C6.85882 4.83821 6.89581 4.0094 6.39109 3.52578C5.80517 2.96446 5.21881 2.64696 4.69109 2.47369V1.14295C4.69109 0.455704 4.07902 -0.0895414 3.36546 0.0122734C2.79308 0.0935468 2.38263 0.605747 2.38263 1.17823Z" fill="white"/>
</svg>
