<svg width="18" height="14" viewBox="0 0 18 14" fill="none" xmlns="http://www.w3.org/2000/svg">
<rect width="18" height="13.5" rx="2" fill="white"/>
<mask id="mask0" mask-type="alpha" maskUnits="userSpaceOnUse" x="0" y="0" width="18" height="14">
<rect width="18" height="13.5" rx="2" fill="white"/>
</mask>
<g mask="url(#mask0)">
<path fill-rule="evenodd" clip-rule="evenodd" d="M18 0H0V0.9H18V0ZM18 1.79997H0V2.69997H18V1.79997ZM0 3.60004H18V4.50004H0V3.60004ZM18 5.4H0V6.3H18V5.4ZM0 7.19997H18V8.09997H0V7.19997ZM18 9.00003H0V9.90003H18V9.00003ZM0 10.8H18V11.7H0V10.8ZM18 12.6H0V13.5H18V12.6Z" fill="#D02F44"/>
<rect width="7.71429" height="6.3" fill="#46467F"/>
<g filter="url(#filter0_d)">
<path fill-rule="evenodd" clip-rule="evenodd" d="M1.71456 1.35015C1.71456 1.59867 1.52269 1.80015 1.28599 1.80015C1.0493 1.80015 0.857422 1.59867 0.857422 1.35015C0.857422 1.10162 1.0493 0.900146 1.28599 0.900146C1.52269 0.900146 1.71456 1.10162 1.71456 1.35015ZM3.42873 1.35015C3.42873 1.59867 3.23686 1.80015 3.00016 1.80015C2.76347 1.80015 2.57159 1.59867 2.57159 1.35015C2.57159 1.10162 2.76347 0.900146 3.00016 0.900146C3.23686 0.900146 3.42873 1.10162 3.42873 1.35015ZM4.71468 1.80015C4.95138 1.80015 5.14325 1.59867 5.14325 1.35015C5.14325 1.10162 4.95138 0.900146 4.71468 0.900146C4.47799 0.900146 4.28611 1.10162 4.28611 1.35015C4.28611 1.59867 4.47799 1.80015 4.71468 1.80015ZM6.85742 1.35015C6.85742 1.59867 6.66554 1.80015 6.42885 1.80015C6.19216 1.80015 6.00028 1.59867 6.00028 1.35015C6.00028 1.10162 6.19216 0.900146 6.42885 0.900146C6.66554 0.900146 6.85742 1.10162 6.85742 1.35015ZM2.14325 2.70018C2.37995 2.70018 2.57182 2.49871 2.57182 2.25018C2.57182 2.00165 2.37995 1.80018 2.14325 1.80018C1.90656 1.80018 1.71468 2.00165 1.71468 2.25018C1.71468 2.49871 1.90656 2.70018 2.14325 2.70018ZM4.28599 2.25018C4.28599 2.49871 4.09412 2.70018 3.85742 2.70018C3.62073 2.70018 3.42885 2.49871 3.42885 2.25018C3.42885 2.00165 3.62073 1.80018 3.85742 1.80018C4.09412 1.80018 4.28599 2.00165 4.28599 2.25018ZM5.57159 2.70018C5.80828 2.70018 6.00016 2.49871 6.00016 2.25018C6.00016 2.00165 5.80828 1.80018 5.57159 1.80018C5.3349 1.80018 5.14302 2.00165 5.14302 2.25018C5.14302 2.49871 5.3349 2.70018 5.57159 2.70018ZM6.85742 3.15012C6.85742 3.39865 6.66554 3.60012 6.42885 3.60012C6.19216 3.60012 6.00028 3.39865 6.00028 3.15012C6.00028 2.90159 6.19216 2.70012 6.42885 2.70012C6.66554 2.70012 6.85742 2.90159 6.85742 3.15012ZM4.71468 3.60012C4.95138 3.60012 5.14325 3.39865 5.14325 3.15012C5.14325 2.90159 4.95138 2.70012 4.71468 2.70012C4.47799 2.70012 4.28611 2.90159 4.28611 3.15012C4.28611 3.39865 4.47799 3.60012 4.71468 3.60012ZM3.42873 3.15012C3.42873 3.39865 3.23686 3.60012 3.00016 3.60012C2.76347 3.60012 2.57159 3.39865 2.57159 3.15012C2.57159 2.90159 2.76347 2.70012 3.00016 2.70012C3.23686 2.70012 3.42873 2.90159 3.42873 3.15012ZM1.28599 3.60012C1.52269 3.60012 1.71456 3.39865 1.71456 3.15012C1.71456 2.90159 1.52269 2.70012 1.28599 2.70012C1.0493 2.70012 0.857422 2.90159 0.857422 3.15012C0.857422 3.39865 1.0493 3.60012 1.28599 3.60012ZM2.57182 4.05015C2.57182 4.29868 2.37995 4.50015 2.14325 4.50015C1.90656 4.50015 1.71468 4.29868 1.71468 4.05015C1.71468 3.80162 1.90656 3.60015 2.14325 3.60015C2.37995 3.60015 2.57182 3.80162 2.57182 4.05015ZM3.85742 4.50015C4.09412 4.50015 4.28599 4.29868 4.28599 4.05015C4.28599 3.80162 4.09412 3.60015 3.85742 3.60015C3.62073 3.60015 3.42885 3.80162 3.42885 4.05015C3.42885 4.29868 3.62073 4.50015 3.85742 4.50015ZM6.00016 4.05015C6.00016 4.29868 5.80828 4.50015 5.57159 4.50015C5.3349 4.50015 5.14302 4.29868 5.14302 4.05015C5.14302 3.80162 5.3349 3.60015 5.57159 3.60015C5.80828 3.60015 6.00016 3.80162 6.00016 4.05015ZM6.42885 5.40018C6.66554 5.40018 6.85742 5.19871 6.85742 4.95018C6.85742 4.70165 6.66554 4.50018 6.42885 4.50018C6.19216 4.50018 6.00028 4.70165 6.00028 4.95018C6.00028 5.19871 6.19216 5.40018 6.42885 5.40018ZM5.14325 4.95018C5.14325 5.19871 4.95138 5.40018 4.71468 5.40018C4.47799 5.40018 4.28611 5.19871 4.28611 4.95018C4.28611 4.70165 4.47799 4.50018 4.71468 4.50018C4.95138 4.50018 5.14325 4.70165 5.14325 4.95018ZM3.00016 5.40018C3.23686 5.40018 3.42873 5.19871 3.42873 4.95018C3.42873 4.70165 3.23686 4.50018 3.00016 4.50018C2.76347 4.50018 2.57159 4.70165 2.57159 4.95018C2.57159 5.19871 2.76347 5.40018 3.00016 5.40018ZM1.71456 4.95018C1.71456 5.19871 1.52269 5.40018 1.28599 5.40018C1.0493 5.40018 0.857422 5.19871 0.857422 4.95018C0.857422 4.70165 1.0493 4.50018 1.28599 4.50018C1.52269 4.50018 1.71456 4.70165 1.71456 4.95018Z" fill="url(#paint0_linear)"/>
</g>
</g>
<defs>
<filter id="filter0_d" x="0.857422" y="0.900146" width="6" height="5.50004" filterUnits="userSpaceOnUse" color-interpolation-filters="sRGB">
<feFlood flood-opacity="0" result="BackgroundImageFix"/>
<feColorMatrix in="SourceAlpha" type="matrix" values="0 0 0 0 0 0 0 0 0 0 0 0 0 0 0 0 0 0 127 0"/>
<feOffset dy="1"/>
<feColorMatrix type="matrix" values="0 0 0 0 0 0 0 0 0 0 0 0 0 0 0 0 0 0 0.06 0"/>
<feBlend mode="normal" in2="BackgroundImageFix" result="effect1_dropShadow"/>
<feBlend mode="normal" in="SourceGraphic" in2="effect1_dropShadow" result="shape"/>
</filter>
<linearGradient id="paint0_linear" x1="0.857422" y1="0.900146" x2="0.857422" y2="5.40015" gradientUnits="userSpaceOnUse">
<stop stop-color="white"/>
<stop offset="1" stop-color="#F0F0F0"/>
</linearGradient>
</defs>
</svg>
