<svg width="20" height="20" viewBox="0 0 20 20" fill="none" xmlns="http://www.w3.org/2000/svg">
<path d="M5.14163 14.9999C5.31379 14.512 5.63308 14.0895 6.05546 13.7906C6.47784 13.4917 6.98253 13.3312 7.49996 13.3312C8.01739 13.3312 8.52208 13.4917 8.94446 13.7906C9.36684 14.0895 9.68612 14.512 9.85829 14.9999H18.3333V16.6666H9.85829C9.68612 17.1545 9.36684 17.5771 8.94446 17.8759C8.52208 18.1748 8.01739 18.3353 7.49996 18.3353C6.98253 18.3353 6.47784 18.1748 6.05546 17.8759C5.63308 17.5771 5.31379 17.1545 5.14163 16.6666H1.66663V14.9999H5.14163ZM10.1416 9.16659C10.3138 8.67865 10.6331 8.25612 11.0555 7.95725C11.4778 7.65838 11.9825 7.49788 12.5 7.49788C13.0174 7.49788 13.5221 7.65838 13.9445 7.95725C14.3668 8.25612 14.6861 8.67865 14.8583 9.16659H18.3333V10.8333H14.8583C14.6861 11.3212 14.3668 11.7437 13.9445 12.0426C13.5221 12.3415 13.0174 12.502 12.5 12.502C11.9825 12.502 11.4778 12.3415 11.0555 12.0426C10.6331 11.7437 10.3138 11.3212 10.1416 10.8333H1.66663V9.16659H10.1416ZM5.14163 3.33326C5.31379 2.84532 5.63308 2.42279 6.05546 2.12392C6.47784 1.82505 6.98253 1.66455 7.49996 1.66455C8.01739 1.66455 8.52208 1.82505 8.94446 2.12392C9.36684 2.42279 9.68612 2.84532 9.85829 3.33326H18.3333V4.99993H9.85829C9.68612 5.48787 9.36684 5.9104 8.94446 6.20927C8.52208 6.50814 8.01739 6.66864 7.49996 6.66864C6.98253 6.66864 6.47784 6.50814 6.05546 6.20927C5.63308 5.9104 5.31379 5.48787 5.14163 4.99993H1.66663V3.33326H5.14163Z" fill="#1374F6"/>
</svg>
