<svg width="16" height="16" viewBox="0 0 16 16" fill="none" xmlns="http://www.w3.org/2000/svg">
<path d="M0.789062 8C1.41573 4.58667 4.40706 2 8.00173 2C11.5964 2 14.5871 4.58667 15.2144 8C14.5877 11.4133 11.5964 14 8.00173 14C4.40706 14 1.4164 11.4133 0.789062 8ZM8.00173 11.3333C8.88578 11.3333 9.73363 10.9821 10.3588 10.357C10.9839 9.7319 11.3351 8.88406 11.3351 8C11.3351 7.11595 10.9839 6.2681 10.3588 5.64298C9.73363 5.01786 8.88578 4.66667 8.00173 4.66667C7.11767 4.66667 6.26983 5.01786 5.64471 5.64298C5.01959 6.2681 4.6684 7.11595 4.6684 8C4.6684 8.88406 5.01959 9.7319 5.64471 10.357C6.26983 10.9821 7.11767 11.3333 8.00173 11.3333ZM8.00173 10C7.4713 10 6.96259 9.78929 6.58752 9.41421C6.21244 9.03914 6.00173 8.53043 6.00173 8C6.00173 7.46957 6.21244 6.96086 6.58752 6.58579C6.96259 6.21071 7.4713 6 8.00173 6C8.53216 6 9.04087 6.21071 9.41594 6.58579C9.79102 6.96086 10.0017 7.46957 10.0017 8C10.0017 8.53043 9.79102 9.03914 9.41594 9.41421C9.04087 9.78929 8.53216 10 8.00173 10Z" />
</svg>
