<svg width="16" height="17" viewBox="0 0 16 17" fill="none" xmlns="http://www.w3.org/2000/svg">
<path d="M10.3571 5.46245L5.64374 10.1766C5.56414 10.2535 5.50066 10.3454 5.45698 10.4471C5.41331 10.5488 5.39032 10.6581 5.38936 10.7688C5.3884 10.8794 5.40948 10.9892 5.45138 11.0916C5.49329 11.194 5.55516 11.287 5.63341 11.3653C5.71165 11.4435 5.80469 11.5054 5.90711 11.5473C6.00952 11.5892 6.11925 11.6103 6.2299 11.6093C6.34055 11.6084 6.4499 11.5854 6.55157 11.5417C6.65324 11.498 6.7452 11.4345 6.82207 11.3549L11.5362 6.64161C12.0051 6.17273 12.2685 5.53679 12.2685 4.87369C12.2685 4.2106 12.0051 3.57466 11.5362 3.10578C11.0674 2.6369 10.4314 2.37348 9.76832 2.37348C9.10522 2.37348 8.46928 2.6369 8.0004 3.10578L3.28624 7.81995C2.8913 8.20505 2.57676 8.66474 2.36087 9.17236C2.14497 9.67997 2.03202 10.2254 2.02857 10.777C2.02511 11.3286 2.13122 11.8754 2.34073 12.3857C2.55025 12.896 2.859 13.3596 3.24908 13.7496C3.63916 14.1396 4.1028 14.4483 4.61311 14.6578C5.12342 14.8672 5.67024 14.9732 6.22185 14.9697C6.77346 14.9662 7.31887 14.8531 7.82645 14.6372C8.33404 14.4212 8.79369 14.1066 9.17874 13.7116L13.8929 8.99828L15.0712 10.1766L10.3571 14.8908C9.81537 15.4325 9.17227 15.8622 8.4645 16.1554C7.75673 16.4485 6.99815 16.5994 6.23207 16.5994C5.46599 16.5994 4.7074 16.4485 3.99963 16.1554C3.29187 15.8622 2.64877 15.4325 2.10707 14.8908C1.56537 14.3491 1.13566 13.706 0.842496 12.9982C0.549329 12.2904 0.398437 11.5319 0.398438 10.7658C0.398438 9.99969 0.549329 9.24111 0.842496 8.53334C1.13566 7.82558 1.56537 7.18248 2.10707 6.64078L6.82207 1.92745C7.60791 1.16845 8.66042 0.748477 9.75291 0.75797C10.8454 0.767463 11.8904 1.20567 12.663 1.9782C13.4355 2.75074 13.8737 3.79579 13.8832 4.88827C13.8927 5.98076 13.4727 7.03327 12.7137 7.81911L8.0004 12.5349C7.76818 12.7671 7.49251 12.9513 7.18912 13.0769C6.88573 13.2025 6.56056 13.2672 6.23219 13.2671C5.90382 13.2671 5.57867 13.2024 5.27531 13.0767C4.97195 12.951 4.69632 12.7667 4.46415 12.5345C4.23199 12.3023 4.04783 12.0266 3.92221 11.7232C3.79658 11.4199 3.73194 11.0947 3.73198 10.7663C3.73202 10.4379 3.79673 10.1128 3.92243 9.80944C4.04813 9.50608 4.23235 9.23044 4.46457 8.99828L9.17874 4.28411L10.3571 5.46245Z" fill="#9E9E9E"/>
</svg>
