<svg width="24" height="24" viewBox="0 0 24 24" fill="none" xmlns="http://www.w3.org/2000/svg">
<g clip-path="">
<path d="M4.1556 2.91961C6.33307 1.0328 9.11878 -0.00400784 12 1.16432e-05C18.6276 1.16432e-05 24 5.37241 24 12C24 14.5632 23.196 16.9392 21.828 18.888L18 12H21.6C21.6002 10.118 21.0471 8.27738 20.0096 6.70712C18.9721 5.13686 17.4959 3.9062 15.7646 3.16816C14.0333 2.43012 12.1233 2.21725 10.2719 2.55603C8.42064 2.89481 6.70975 3.77029 5.352 5.07361L4.1556 2.91961ZM19.8444 21.0804C17.6669 22.9672 14.8812 24.004 12 24C5.3724 24 0 18.6276 0 12C0 9.43681 0.804 7.06081 2.172 5.11201L6 12H2.4C2.39985 13.8821 2.9529 15.7226 3.9904 17.2929C5.0279 18.8632 6.50408 20.0938 8.23538 20.8319C9.96669 21.5699 11.8767 21.7828 13.7281 21.444C15.5794 21.1052 17.2903 20.2297 18.648 18.9264L19.8444 21.0804Z" />
<path d="M15.0155 14.3085L17.157 16.4495L16.4495 17.157L14.3085 15.0155C13.5119 15.6541 12.521 16.0015 11.5 16C9.016 16 7 13.984 7 11.5C7 9.016 9.016 7 11.5 7C13.984 7 16 9.016 16 11.5C16.0015 12.521 15.6541 13.5119 15.0155 14.3085ZM14.0125 13.9375C14.6471 13.2849 15.0014 12.4102 15 11.5C15 9.566 13.4335 8 11.5 8C9.566 8 8 9.566 8 11.5C8 13.4335 9.566 15 11.5 15C12.4102 15.0014 13.2849 14.6471 13.9375 14.0125L14.0125 13.9375Z" />
</g>
<defs>
<clipPath id="clip0">
<rect width="24" height="24" />
</clipPath>
</defs>
</svg>
