<svg width="16" height="16" viewBox="0 0 16 16" fill="none" xmlns="http://www.w3.org/2000/svg">
<g clip-path="url(#clip0)">
<path d="M10.3707 4.90027C10.3707 3.59399 9.30798 2.53125 8.00171 2.53125C6.69556 2.53125 5.63281 3.59399 5.63281 4.90027C5.63281 6.20642 6.69543 7.26917 8.00171 7.26917C9.30798 7.26917 10.3707 6.20642 10.3707 4.90027Z" fill="white"/>
<path d="M8.00171 13.1875C8.36877 12.7094 10.5209 9.75171 11.2454 8.76355C12.1071 7.58838 12.902 6.4093 12.902 4.90027C12.902 2.19397 10.708 0.00012207 8.00171 0.00012207L8.0011 0C5.29468 0 3.10156 2.19385 3.10156 4.90015C3.10156 6.40918 3.89636 7.58838 4.75806 8.76355C5.48267 9.75171 8.00171 13.1875 8.00171 13.1875ZM4.69531 4.90027C4.69531 3.07703 6.17859 1.59375 8.00171 1.59375C9.82495 1.59375 11.3082 3.07703 11.3082 4.90027C11.3082 6.72339 9.82495 8.20667 8.00171 8.20667C6.17859 8.20667 4.69531 6.72339 4.69531 4.90027Z" fill="white"/>
<path d="M9.80066 12.3188C9.70361 12.4514 7.98389 14.7495 7.98389 14.7495L6.20178 12.3188H4.04419L2.65625 16H13.3459L11.9579 12.3188H9.80066Z" fill="white"/>
</g>
<defs>
<clipPath id="clip0">
<rect width="16" height="16" fill="white"/>
</clipPath>
</defs>
</svg>
