<svg width="20" height="20" viewBox="0 0 20 20" fill="none" xmlns="http://www.w3.org/2000/svg">
<path d="M7.77516 9.58334H9.5835C10.5781 9.58334 11.5319 9.97843 12.2351 10.6817C12.9384 11.3849 13.3335 12.3388 13.3335 13.3333H7.49933L7.50016 14.1667H14.1668V13.3333C14.1642 12.4466 13.908 11.5792 13.4285 10.8333H15.8335C16.6212 10.8331 17.3929 11.0562 18.0589 11.4767C18.725 11.8972 19.2583 12.4979 19.5968 13.2092C17.626 15.81 14.4352 17.5 10.8335 17.5C8.53266 17.5 6.5835 17.0083 5.00016 16.1458V8.3925C6.01401 8.53773 6.97139 8.94858 7.77516 9.58334ZM3.3335 7.5C3.53761 7.50003 3.73461 7.57497 3.88714 7.7106C4.03967 7.84623 4.13712 8.03313 4.161 8.23584L4.16683 8.33334V15.8333C4.16683 16.0544 4.07903 16.2663 3.92275 16.4226C3.76647 16.5789 3.55451 16.6667 3.3335 16.6667H1.66683C1.44582 16.6667 1.23385 16.5789 1.07757 16.4226C0.921293 16.2663 0.833496 16.0544 0.833496 15.8333V8.33334C0.833496 8.11232 0.921293 7.90036 1.07757 7.74408C1.23385 7.5878 1.44582 7.5 1.66683 7.5H3.3335ZM11.3718 2.97917L11.6668 3.275L11.9618 2.98C12.155 2.78519 12.3848 2.63044 12.6379 2.52465C12.891 2.41887 13.1626 2.36412 13.4369 2.36356C13.7113 2.363 13.983 2.41663 14.2366 2.52138C14.4902 2.62613 14.7206 2.77993 14.9145 2.97396C15.1085 3.16798 15.2623 3.39841 15.3669 3.65201C15.4716 3.90561 15.5252 4.17739 15.5245 4.45174C15.5239 4.7261 15.4691 4.99762 15.3632 5.25073C15.2573 5.50384 15.1025 5.73355 14.9077 5.92667L11.6668 9.16667L8.42516 5.925C8.23034 5.73183 8.0756 5.50208 7.96981 5.24894C7.86403 4.9958 7.80928 4.72426 7.80872 4.4499C7.80816 4.17555 7.86179 3.90379 7.96654 3.65022C8.07129 3.39664 8.22509 3.16626 8.41912 2.97229C8.61314 2.77832 8.84357 2.62458 9.09717 2.51991C9.35077 2.41523 9.62255 2.36167 9.8969 2.36231C10.1713 2.36295 10.4428 2.41777 10.6959 2.52363C10.949 2.62949 11.1787 2.7843 11.3718 2.97917Z" fill="white"/>
</svg>
