<svg width="16" height="16" viewBox="0 0 16 16" fill="none" xmlns="http://www.w3.org/2000/svg">
<path d="M5.47958 3.02287C6.03308 3.12755 6.56661 2.76346 6.67109 2.20979C6.77552 1.65609 6.41191 1.12252 5.8584 1.01787C5.30451 0.913418 4.7705 1.27748 4.66605 1.83121C4.56121 2.3851 4.92566 2.91822 5.47958 3.02287Z" fill="#7D7D7D" fill-opacity="0.68"/>
<path d="M13.7471 13.6071L13.1837 11.5856L13.2345 9.89388C13.2385 9.76354 13.2282 9.63316 13.204 9.50507L12.6007 6.31081C12.5573 6.08177 12.4252 5.87937 12.2327 5.74805C12.0403 5.61673 11.8032 5.56728 11.5744 5.61042L11.206 5.68019C10.9689 5.72485 10.7725 5.86115 10.6455 6.04536C10.7773 6.0252 10.9438 5.99681 11.0668 5.98705L9.47749 6.54294L7.65317 6.28245C7.43561 6.25141 7.24141 6.38926 7.18076 6.59256C6.74734 6.19857 7.06374 6.48635 6.01702 5.535L5.24985 4.1047C5.31401 4.16646 5.56455 4.47788 5.6252 4.55199L5.65249 4.40702C5.74262 3.93025 5.42884 3.47082 4.95206 3.38091L4.58366 3.31114C4.10775 3.22142 3.64791 3.5337 3.5573 4.01156L2.96467 7.14914C2.93352 7.31411 2.93163 7.48328 2.95916 7.64892L3.21535 9.19182L2.4261 11.2618C2.32337 11.5321 2.45861 11.8346 2.72909 11.9377C2.99648 12.0403 3.30078 11.9074 3.40479 11.635L4.2439 9.43366C4.27641 9.34761 4.28595 9.25439 4.27163 9.16365L4.16762 8.5204L4.89319 9.38009L4.86805 11.4421C4.86457 11.7312 5.096 11.9685 5.38515 11.972C5.38732 11.972 5.38943 11.972 5.3916 11.972C5.6781 11.972 5.91173 11.7418 5.91518 11.4547L5.94246 9.19788C5.9438 9.07218 5.89999 8.94996 5.81896 8.85396L4.99678 7.87963L5.25983 6.48599L5.14587 6.38239C5.06956 6.31304 5.01497 6.2738 4.98379 6.17454C4.94911 6.06186 4.50613 4.63784 4.48402 4.52254L5.28372 6.01375C5.30622 6.05599 5.33615 6.09111 5.36904 6.12254C5.37121 6.12493 5.3721 6.12793 5.37469 6.13035L6.6975 7.33244C6.87649 7.49521 7.1517 7.48003 7.31383 7.30296C7.36667 7.24487 7.39398 7.17531 7.41006 7.10379C7.44818 7.12159 7.48628 7.14 7.53011 7.14625L9.45966 7.42193C9.52387 7.43147 9.59623 7.42583 9.66515 7.40199L11.3581 6.80972C11.2732 6.8676 10.6997 7.19353 10.6074 7.24662L11.0599 9.64151L10.1068 10.0411C9.94428 10.1092 9.82728 10.2542 9.79474 10.4271L9.42551 12.3872C9.37175 12.6714 9.559 12.9451 9.84288 12.9986C9.87581 13.0049 9.90835 13.0079 9.94038 13.0079C10.1875 13.0079 10.4072 12.8324 10.4544 12.581L10.7717 10.8978L12.1626 10.3144L12.1348 11.6409C12.1339 11.692 12.1405 11.7432 12.1539 11.7926L12.7382 13.8884C12.8028 14.1198 13.0134 14.2715 13.2422 14.2715C13.2891 14.2715 13.3363 14.2653 13.3831 14.252C13.6617 14.1744 13.8247 13.8858 13.7471 13.6071Z" fill="#7D7D7D" fill-opacity="0.68"/>
<path d="M11.2778 5.18728C11.8318 5.08258 12.1963 4.54949 12.0914 3.99557C11.9869 3.44187 11.453 3.07779 10.899 3.18224C10.3456 3.28692 9.98189 3.82045 10.0864 4.37415C10.1908 4.92787 10.7244 5.29193 11.2778 5.18728Z" fill="#7D7D7D" fill-opacity="0.68"/>
<path d="M11.2937 13.1807H8.74732V12.3449C8.74732 12.204 8.63291 12.0898 8.49203 12.0898H1.7666V13.1807V13.6245V14.2716H11.549V13.4358C11.549 13.295 11.4346 13.1807 11.2937 13.1807Z" fill="#7D7D7D" fill-opacity="0.68"/>
</svg>
