<svg width="24" height="24" viewBox="0 0 24 24" fill="none" xmlns="http://www.w3.org/2000/svg">
<path d="M12 8.99994C11.2044 8.99994 10.4413 9.31601 9.87868 9.87862C9.31607 10.4412 9 11.2043 9 11.9999C9 12.7956 9.31607 13.5587 9.87868 14.1213C10.4413 14.6839 11.2044 14.9999 12 14.9999C12.7957 14.9999 13.5587 14.6839 14.1213 14.1213C14.6839 13.5587 15 12.7956 15 11.9999C15 11.2043 14.6839 10.4412 14.1213 9.87862C13.5587 9.31601 12.7957 8.99994 12 8.99994ZM12 6.99994C13.3261 6.99994 14.5979 7.52672 15.5355 8.46441C16.4732 9.40209 17 10.6739 17 11.9999C17 13.326 16.4732 14.5978 15.5355 15.5355C14.5979 16.4732 13.3261 16.9999 12 16.9999C10.6739 16.9999 9.40215 16.4732 8.46447 15.5355C7.52678 14.5978 7 13.326 7 11.9999C7 10.6739 7.52678 9.40209 8.46447 8.46441C9.40215 7.52672 10.6739 6.99994 12 6.99994ZM18.5 6.74994C18.5 7.08146 18.3683 7.3994 18.1339 7.63382C17.8995 7.86824 17.5815 7.99994 17.25 7.99994C16.9185 7.99994 16.6005 7.86824 16.3661 7.63382C16.1317 7.3994 16 7.08146 16 6.74994C16 6.41842 16.1317 6.10048 16.3661 5.86606C16.6005 5.63164 16.9185 5.49994 17.25 5.49994C17.5815 5.49994 17.8995 5.63164 18.1339 5.86606C18.3683 6.10048 18.5 6.41842 18.5 6.74994ZM12 3.99994C9.526 3.99994 9.122 4.00694 7.971 4.05794C7.187 4.09494 6.661 4.19994 6.173 4.38994C5.739 4.55794 5.426 4.75894 5.093 5.09294C4.78001 5.39534 4.53935 5.76452 4.389 6.17294C4.199 6.66294 4.094 7.18794 4.058 7.97094C4.006 9.07494 4 9.46094 4 11.9999C4 14.4739 4.007 14.8779 4.058 16.0289C4.095 16.8119 4.2 17.3389 4.389 17.8259C4.559 18.2609 4.759 18.5739 5.091 18.9059C5.428 19.2419 5.741 19.4429 6.171 19.6089C6.665 19.7999 7.191 19.9059 7.971 19.9419C9.075 19.9939 9.461 19.9999 12 19.9999C14.474 19.9999 14.878 19.9929 16.029 19.9419C16.811 19.9049 17.338 19.7999 17.826 19.6109C18.259 19.4419 18.574 19.2409 18.906 18.9089C19.243 18.5719 19.444 18.2589 19.61 17.8289C19.8 17.3359 19.906 16.8089 19.942 16.0289C19.994 14.9249 20 14.5389 20 11.9999C20 9.52594 19.993 9.12194 19.942 7.97094C19.905 7.18894 19.8 6.66094 19.61 6.17294C19.4593 5.76494 19.2191 5.3959 18.907 5.09294C18.6047 4.77979 18.2355 4.53911 17.827 4.38894C17.337 4.19894 16.811 4.09394 16.029 4.05794C14.925 4.00594 14.539 3.99994 12 3.99994ZM12 1.99994C14.717 1.99994 15.056 2.00994 16.122 2.05994C17.187 2.10994 17.912 2.27694 18.55 2.52494C19.21 2.77894 19.766 3.12294 20.322 3.67794C20.8305 4.17784 21.224 4.78253 21.475 5.44994C21.722 6.08694 21.89 6.81294 21.94 7.87794C21.987 8.94394 22 9.28294 22 11.9999C22 14.7169 21.99 15.0559 21.94 16.1219C21.89 17.1869 21.722 17.9119 21.475 18.5499C21.2247 19.2177 20.8311 19.8226 20.322 20.3219C19.822 20.8303 19.2173 21.2237 18.55 21.4749C17.913 21.7219 17.187 21.8899 16.122 21.9399C15.056 21.9869 14.717 21.9999 12 21.9999C9.283 21.9999 8.944 21.9899 7.878 21.9399C6.813 21.8899 6.088 21.7219 5.45 21.4749C4.78233 21.2244 4.17753 20.8309 3.678 20.3219C3.16941 19.8221 2.77593 19.2174 2.525 18.5499C2.277 17.9129 2.11 17.1869 2.06 16.1219C2.013 15.0559 2 14.7169 2 11.9999C2 9.28294 2.01 8.94394 2.06 7.87794C2.11 6.81194 2.277 6.08794 2.525 5.44994C2.77524 4.78212 3.1688 4.17726 3.678 3.67794C4.17767 3.16917 4.78243 2.77567 5.45 2.52494C6.088 2.27694 6.812 2.10994 7.878 2.05994C8.944 2.01294 9.283 1.99994 12 1.99994Z" />
</svg>
