<svg xmlns="http://www.w3.org/2000/svg" xml:space="preserve" width="35mm" height="50mm" style="shape-rendering:geometricPrecision;text-rendering:geometricPrecision;image-rendering:optimizeQuality;fill-rule:evenodd;clip-rule:evenodd" viewBox="0 0 3500 5000"><defs><style>.fil2{fill:#e49845}.fil1{fill:#066aaf}</style></defs><g id="Слой_x0020_1"><path style="fill:none" d="M0-.01h3500v5000H0z"/><path class="fil1" d="M3249.81 4069.33c-1429.74-196.75-2256.48-396.15-2250.49-823.67 5.27-377.01 647.52-927.17 2250.68-1874v-71.67c-3421.06 2020.46-2690.59 2429.74 0 2799.99l-.19-30.65z"/><path class="fil1" d="M3250 4070.04c-2062.89-63.57-2948.84-422.68-2950.29-1008.26C298.14 2431.6 1328.64 1538.27 3250 372.66V300c-3706.73 2248.71-4282.9 3668.01 0 3799.99v-29.95z"/><path class="fil2" d="M250 4300h49.3l-9.3 360 260-10v50H250zM1028.09 4488.7l-178.02 1.3L740 4700h-50l225-400h50l225 400h-49.71l-112.2-211.3zm-20.66-38.7L940 4330l-62.41 120h129.84zM1180 4300h50l200 360 200-360h50l-225 400h-47.83zM1810 4300h225l-275 360 410-10v50h-500l286.87-360-146.87 10zM2210 4300h500l-20.01 50-429.99-10 58.39 120 236.61-10-20 50h-202.42l77.42 160 150-10-25 50h-150zM2925 4300h150l21.87 50-161.87-10-44.36 120 184.35-10v50h-194.51L2820 4660l408.12-10 21.88 50h-500z"/></g></svg>