<svg width="16" height="16" viewBox="0 0 16 16" fill="none" xmlns="http://www.w3.org/2000/svg">
<circle opacity="0.5" cx="8" cy="8" r="7.5"/>
<path opacity="0.5" d="M8.26953 9.96094H7.42578C7.38672 9.78516 7.36719 9.60547 7.36719 9.42188C7.36719 9.07031 7.44727 8.75195 7.60742 8.4668C7.76758 8.18164 7.96289 7.94531 8.19336 7.75781C8.42773 7.57031 8.6582 7.38672 8.88477 7.20703C9.11523 7.02734 9.30859 6.81641 9.46484 6.57422C9.625 6.32812 9.70508 6.05664 9.70508 5.75977C9.70508 5.36133 9.54688 5.02148 9.23047 4.74023C8.91797 4.45898 8.49609 4.31836 7.96484 4.31836C7.67578 4.31836 7.41406 4.36523 7.17969 4.45898C6.94531 4.54883 6.76367 4.6582 6.63477 4.78711C6.50586 4.91602 6.39844 5.04492 6.3125 5.17383C6.23047 5.29883 6.17383 5.40625 6.14258 5.49609L6.10742 5.64258L5.32812 5.40234C5.34375 5.34766 5.36523 5.27734 5.39258 5.19141C5.41992 5.10547 5.5 4.95312 5.63281 4.73438C5.76562 4.51562 5.92188 4.32227 6.10156 4.1543C6.28125 3.98633 6.53711 3.83203 6.86914 3.69141C7.20117 3.55078 7.56641 3.48047 7.96484 3.48047C8.72656 3.48047 9.35742 3.70703 9.85742 4.16016C10.3574 4.60938 10.6074 5.14258 10.6074 5.75977C10.6074 6.11133 10.5488 6.42578 10.4316 6.70312C10.3184 6.97656 10.1758 7.19336 10.0039 7.35352C9.83203 7.51367 9.64258 7.67773 9.43555 7.8457C9.23242 8.01367 9.04492 8.16992 8.87305 8.31445C8.70117 8.45898 8.55664 8.6543 8.43945 8.90039C8.32617 9.14258 8.26953 9.41602 8.26953 9.7207V9.96094ZM7.41406 11.9531C7.30469 11.8398 7.25 11.6953 7.25 11.5195C7.25 11.3438 7.30469 11.2012 7.41406 11.0918C7.52734 10.9785 7.67188 10.9219 7.84766 10.9219C8.02344 10.9219 8.16602 10.9785 8.27539 11.0918C8.38867 11.2012 8.44531 11.3438 8.44531 11.5195C8.44531 11.6953 8.38867 11.8398 8.27539 11.9531C8.16602 12.0625 8.02344 12.1172 7.84766 12.1172C7.67188 12.1172 7.52734 12.0625 7.41406 11.9531Z"/>
</svg>
