<svg width="16" height="16" viewBox="0 0 16 16" fill="none" xmlns="http://www.w3.org/2000/svg">
<path d="M5.33203 13.3354V14.6234C5.33213 14.6868 5.31416 14.7489 5.28021 14.8025C5.24626 14.856 5.19775 14.8987 5.14037 14.9257C5.08298 14.9526 5.0191 14.9627 4.95622 14.9546C4.89335 14.9465 4.83408 14.9207 4.78536 14.8801L2.0387 12.5914C1.98602 12.5475 1.94817 12.4884 1.93032 12.4221C1.91248 12.3559 1.9155 12.2858 1.93898 12.2213C1.96245 12.1569 2.00524 12.1012 2.06151 12.062C2.11777 12.0228 2.18477 12.0018 2.25336 12.0021H11.9987C12.3523 12.0021 12.6915 11.8616 12.9415 11.6116C13.1916 11.3615 13.332 11.0224 13.332 10.6687V5.33542H14.6654V10.6687C14.6654 11.376 14.3844 12.0543 13.8843 12.5544C13.3842 13.0545 12.7059 13.3354 11.9987 13.3354H5.33203ZM10.6654 1.38075C10.6653 1.31736 10.6832 1.25525 10.7172 1.20171C10.7511 1.14817 10.7996 1.10542 10.857 1.07848C10.9144 1.05153 10.9783 1.04151 11.0412 1.04959C11.104 1.05767 11.1633 1.08351 11.212 1.12408L13.9587 3.41275C14.0113 3.45665 14.0492 3.5157 14.067 3.58187C14.0849 3.64803 14.0819 3.7181 14.0585 3.78252C14.0351 3.84694 13.9925 3.90259 13.9363 3.94188C13.8801 3.98117 13.8132 4.00219 13.7447 4.00208H3.9987C3.64508 4.00208 3.30594 4.14256 3.05589 4.39261C2.80584 4.64266 2.66536 4.9818 2.66536 5.33542V10.6687H1.33203V5.33542C1.33203 4.62817 1.61298 3.9499 2.11308 3.4498C2.61318 2.9497 3.29145 2.66875 3.9987 2.66875H10.6654V1.38075ZM7.33203 5.33542H8.66536V10.6687H7.33203V6.66875H5.9987V6.00208L7.33203 5.33542Z"/>
</svg>
