<svg width="13" height="14" viewBox="0 0 13 14" fill="none" xmlns="http://www.w3.org/2000/svg">
<path d="M4.3335 4.6665V7.33317L0.333496 3.99984L4.3335 0.666504V3.33317H7.66683C9.08132 3.33317 10.4379 3.89507 11.4381 4.89527C12.4383 5.89546 13.0002 7.25202 13.0002 8.6665C13.0002 10.081 12.4383 11.4375 11.4381 12.4377C10.4379 13.4379 9.08132 13.9998 7.66683 13.9998H1.66683V12.6665H7.66683C8.7277 12.6665 9.74511 12.2451 10.4953 11.4949C11.2454 10.7448 11.6668 9.72737 11.6668 8.6665C11.6668 7.60564 11.2454 6.58822 10.4953 5.83808C9.74511 5.08793 8.7277 4.6665 7.66683 4.6665H4.3335Z" fill="white"/>
</svg>
