<svg width="16" height="16" viewBox="0 0 16 16" fill="none" xmlns="http://www.w3.org/2000/svg">
<path d="M12.0233 11.0767L14.8786 13.9314L13.9353 14.8747L11.0806 12.0194C10.0184 12.8708 8.69727 13.334 7.33594 13.332C4.02394 13.332 1.33594 10.644 1.33594 7.33203C1.33594 4.02003 4.02394 1.33203 7.33594 1.33203C10.6479 1.33203 13.3359 4.02003 13.3359 7.33203C13.3379 8.69337 12.8748 10.0145 12.0233 11.0767ZM10.6859 10.582C11.532 9.71196 12.0045 8.54565 12.0026 7.33203C12.0026 4.75337 9.91394 2.66536 7.33594 2.66536C4.75727 2.66536 2.66927 4.75337 2.66927 7.33203C2.66927 9.91003 4.75727 11.9987 7.33594 11.9987C8.54956 12.0006 9.71586 11.5281 10.5859 10.682L10.6859 10.582Z"/>
</svg>
