<svg width="20" height="20" viewBox="0 0 20 20" fill="none" xmlns="http://www.w3.org/2000/svg">
<path d="M1.77715 11.3582C1.62767 10.4588 1.62767 9.54094 1.77715 8.64155C2.69548 8.66322 3.52048 8.22322 3.84131 7.44905C4.16215 6.67405 3.88965 5.77905 3.22465 5.14655C3.75499 4.40429 4.40428 3.75472 5.14631 3.22405C5.77965 3.88905 6.67465 4.16155 7.44965 3.84072C8.22465 3.51989 8.66381 2.69405 8.64131 1.77655C9.54124 1.62689 10.4597 1.62689 11.3596 1.77655C11.3371 2.69489 11.7771 3.51989 12.5513 3.84072C13.3263 4.16155 14.2213 3.88905 14.8538 3.22405C15.5961 3.7544 16.2456 4.40369 16.7763 5.14572C16.1113 5.77905 15.8388 6.67405 16.1596 7.44905C16.4805 8.22405 17.3063 8.66322 18.2238 8.64072C18.3735 9.54065 18.3735 10.4591 18.2238 11.3591C17.3055 11.3366 16.4805 11.7766 16.1596 12.5507C15.8388 13.3257 16.1113 14.2207 16.7763 14.8532C16.246 15.5955 15.5967 16.2451 14.8546 16.7757C14.2213 16.1107 13.3263 15.8382 12.5513 16.1591C11.7763 16.4799 11.3371 17.3057 11.3596 18.2232C10.4597 18.3729 9.54124 18.3729 8.64131 18.2232C8.66381 17.3049 8.22381 16.4799 7.44965 16.1591C6.67465 15.8382 5.77965 16.1107 5.14715 16.7757C4.40489 16.2454 3.75531 15.5961 3.22465 14.8541C3.88965 14.2207 4.16215 13.3257 3.84131 12.5507C3.52048 11.7757 2.69465 11.3366 1.77715 11.3591V11.3582ZM10.0005 12.4999C10.6635 12.4999 11.2994 12.2365 11.7682 11.7677C12.2371 11.2988 12.5005 10.6629 12.5005 9.99989C12.5005 9.33685 12.2371 8.70096 11.7682 8.23212C11.2994 7.76328 10.6635 7.49989 10.0005 7.49989C9.33744 7.49989 8.70155 7.76328 8.23271 8.23212C7.76387 8.70096 7.50048 9.33685 7.50048 9.99989C7.50048 10.6629 7.76387 11.2988 8.23271 11.7677C8.70155 12.2365 9.33744 12.4999 10.0005 12.4999Z" />
</svg>
