<svg width="24" height="24" viewBox="0 0 24 24" fill="none" xmlns="http://www.w3.org/2000/svg">
<path d="M21 14.8503L19.2518 15.3191L17.841 14.5046L19.1655 14.1498C19.2607 14.1243 19.3498 14.0803 19.428 14.0203C19.5061 13.9603 19.5717 13.8856 19.6209 13.8002C19.6702 13.7149 19.7021 13.6208 19.7149 13.5231C19.7278 13.4254 19.7213 13.3262 19.6958 13.2311C19.6703 13.1359 19.6263 13.0467 19.5663 12.9686C19.5063 12.8904 19.4315 12.8249 19.3462 12.7757C19.2609 12.7264 19.1667 12.6945 19.0691 12.6816C18.9714 12.6688 18.8722 12.6753 18.777 12.7008L16.002 13.4441L13.5 12.0003L16.0035 10.5551L18.7785 11.2983C18.9707 11.3498 19.1754 11.3229 19.3477 11.2235C19.52 11.124 19.6457 10.9602 19.6973 10.7681C19.7488 10.5759 19.7219 10.3712 19.6224 10.1989C19.523 10.0266 19.3592 9.90082 19.167 9.84931L17.8425 9.49456L19.2533 8.68006L21 9.15031C21.0952 9.17581 21.1944 9.18233 21.2921 9.16949C21.3897 9.15665 21.4839 9.1247 21.5692 9.07546C21.6545 9.02622 21.7293 8.96066 21.7893 8.88252C21.8493 8.80438 21.8933 8.7152 21.9188 8.62006C21.9443 8.52491 21.9508 8.42568 21.9379 8.32802C21.9251 8.23035 21.8932 8.13618 21.8439 8.05086C21.7947 7.96555 21.7291 7.89077 21.651 7.83079C21.5728 7.77081 21.4837 7.72681 21.3885 7.70131L20.064 7.34656L20.4188 6.02206C20.4443 5.92691 20.4508 5.82768 20.4379 5.73001C20.4251 5.63235 20.3932 5.53818 20.3439 5.45286C20.2947 5.36755 20.2291 5.29277 20.151 5.23279C20.0728 5.17281 19.9837 5.12881 19.8885 5.10331C19.7934 5.0778 19.6941 5.07128 19.5965 5.08412C19.4988 5.09696 19.4046 5.12891 19.3193 5.17815C19.234 5.22739 19.1592 5.29295 19.0992 5.37109C19.0393 5.44923 18.9953 5.53841 18.9698 5.63356L18.501 7.38105L17.0903 8.19556L17.445 6.87106C17.4965 6.67891 17.4696 6.47416 17.3702 6.30186C17.2707 6.12956 17.1069 6.00382 16.9148 5.95231C16.7226 5.90079 16.5179 5.92771 16.3456 6.02715C16.1733 6.12659 16.0475 6.29041 15.996 6.48256L15.2528 9.25756L12.75 10.7013V7.81081L14.7803 5.78056C14.9169 5.6391 14.9925 5.44965 14.9908 5.253C14.9891 5.05636 14.9102 4.86825 14.7711 4.72919C14.6321 4.59014 14.444 4.51126 14.2473 4.50955C14.0507 4.50784 13.8612 4.58344 13.7198 4.72006L12.75 5.68981V4.06081L14.0303 2.78056C14.1669 2.6391 14.2425 2.44965 14.2408 2.253C14.2391 2.05636 14.1602 1.86825 14.0211 1.72919C13.8821 1.59014 13.694 1.51126 13.4973 1.50955C13.3007 1.50784 13.1112 1.58344 12.9698 1.72006L12 2.68981L11.0303 1.72006C10.8888 1.58344 10.6994 1.50784 10.5027 1.50955C10.3061 1.51126 10.118 1.59014 9.9789 1.72919C9.83984 1.86825 9.76097 2.05636 9.75926 2.253C9.75755 2.44965 9.83314 2.6391 9.96976 2.78056L11.25 4.06081V5.68981L10.2803 4.72006C10.1388 4.58344 9.94936 4.50784 9.75271 4.50955C9.55606 4.51126 9.36795 4.59014 9.2289 4.72919C9.08984 4.86825 9.01097 5.05636 9.00926 5.253C9.00755 5.44965 9.08314 5.6391 9.21976 5.78056L11.25 7.81081V10.7013L8.74651 9.25605L8.00326 6.48106C7.95174 6.28891 7.826 6.12509 7.6537 6.02565C7.48141 5.92621 7.27666 5.89929 7.08451 5.95081C6.89236 6.00232 6.72855 6.12806 6.62911 6.30036C6.52967 6.47266 6.50274 6.67741 6.55426 6.86956L6.90901 8.19406L5.49901 7.38105L5.03101 5.63206C5.0055 5.53691 4.9615 5.44773 4.90153 5.36959C4.84155 5.29145 4.76677 5.22589 4.68145 5.17665C4.59614 5.12741 4.50196 5.09546 4.4043 5.08262C4.30664 5.06978 4.2074 5.0763 4.11226 5.10181C4.01712 5.12731 3.92793 5.17131 3.84979 5.23129C3.77165 5.29127 3.7061 5.36605 3.65686 5.45136C3.60762 5.53668 3.57567 5.63085 3.56282 5.72852C3.54998 5.82618 3.5565 5.92541 3.58201 6.02056L3.93676 7.34506L2.61226 7.69981C2.51702 7.72527 2.42773 7.76924 2.34948 7.8292C2.27123 7.88917 2.20556 7.96397 2.15622 8.04932C2.10687 8.13467 2.07483 8.2289 2.0619 8.32663C2.04897 8.42437 2.05543 8.52369 2.08089 8.61893C2.10635 8.71417 2.15032 8.80347 2.21029 8.88171C2.27025 8.95996 2.34505 9.02563 2.4304 9.07498C2.51575 9.12432 2.60998 9.15637 2.70771 9.16929C2.80545 9.18222 2.90477 9.17577 3.00001 9.15031L4.74826 8.68156L6.15901 9.49606L4.83451 9.85081C4.73937 9.87631 4.65018 9.92031 4.57204 9.98029C4.49391 10.0403 4.42835 10.115 4.37911 10.2004C4.32987 10.2857 4.29792 10.3799 4.28507 10.4775C4.27223 10.5752 4.27875 10.6744 4.30426 10.7696C4.32977 10.8647 4.37377 10.9539 4.43375 11.032C4.49372 11.1102 4.5685 11.1757 4.65382 11.225C4.73913 11.2742 4.83331 11.3062 4.93097 11.319C5.02863 11.3318 5.12787 11.3253 5.22301 11.2998L7.99801 10.5566L10.5 12.0003L7.99651 13.4456L5.22151 12.7023C5.12637 12.6768 5.02713 12.6703 4.92947 12.6831C4.83181 12.696 4.73763 12.7279 4.65232 12.7772C4.567 12.8264 4.49222 12.8919 4.43225 12.9701C4.37227 13.0482 4.32827 13.1374 4.30276 13.2326C4.27725 13.3277 4.27073 13.4269 4.28357 13.5246C4.29642 13.6223 4.32837 13.7164 4.37761 13.8017C4.42685 13.8871 4.4924 13.9618 4.57054 14.0218C4.64868 14.0818 4.73787 14.1258 4.83301 14.1513L6.15751 14.5061L4.74901 15.3206L3.00001 14.8503C2.80786 14.7988 2.60312 14.8257 2.43082 14.9251C2.25852 15.0246 2.13278 15.1884 2.08126 15.3806C2.02974 15.5727 2.05667 15.7774 2.15611 15.9497C2.25555 16.122 2.41936 16.2478 2.61151 16.2993L3.93601 16.6541L3.58201 17.9801C3.5565 18.0752 3.54998 18.1744 3.56282 18.2721C3.57567 18.3698 3.60762 18.4639 3.65686 18.5492C3.7061 18.6346 3.77165 18.7093 3.84979 18.7693C3.92793 18.8293 4.01712 18.8733 4.11226 18.8988C4.2074 18.9243 4.30664 18.9308 4.4043 18.918C4.50196 18.9051 4.59614 18.8732 4.68145 18.824C4.76677 18.7747 4.84155 18.7092 4.90153 18.631C4.9615 18.5529 5.0055 18.4637 5.03101 18.3686L5.49976 16.6196L6.91051 15.8051L6.55501 17.1296C6.5295 17.2247 6.52298 17.3239 6.53582 17.4216C6.54867 17.5193 6.58062 17.6134 6.62986 17.6987C6.6791 17.7841 6.74466 17.8588 6.82279 17.9188C6.90093 17.9788 6.99012 18.0228 7.08526 18.0483C7.1804 18.0738 7.27964 18.0803 7.3773 18.0675C7.47496 18.0546 7.56914 18.0227 7.65445 17.9735C7.73977 17.9242 7.81455 17.8587 7.87453 17.7805C7.9345 17.7024 7.9785 17.6132 8.00401 17.5181L8.74726 14.7431L11.25 13.2993V16.1898L9.21976 18.2201C9.08314 18.3615 9.00755 18.551 9.00926 18.7476C9.01097 18.9443 9.08984 19.1324 9.2289 19.2714C9.36795 19.4105 9.55606 19.4894 9.75271 19.4911C9.94936 19.4928 10.1388 19.4172 10.2803 19.2806L11.25 18.3108V19.9398L9.96976 21.2201C9.83314 21.3615 9.75755 21.551 9.75926 21.7476C9.76097 21.9443 9.83984 22.1324 9.9789 22.2714C10.118 22.4105 10.3061 22.4894 10.5027 22.4911C10.6994 22.4928 10.8888 22.4172 11.0303 22.2806L12 21.3108L12.9698 22.2806C13.1112 22.4172 13.3007 22.4928 13.4973 22.4911C13.694 22.4894 13.8821 22.4105 14.0211 22.2714C14.1602 22.1324 14.2391 21.9443 14.2408 21.7476C14.2425 21.551 14.1669 21.3615 14.0303 21.2201L12.75 19.9398V18.3108L13.7198 19.2806C13.8612 19.4172 14.0507 19.4928 14.2473 19.4911C14.444 19.4894 14.6321 19.4105 14.7711 19.2714C14.9102 19.1324 14.9891 18.9443 14.9908 18.7476C14.9925 18.551 14.9169 18.3615 14.7803 18.2201L12.75 16.1898V13.2993L15.2535 14.7446L15.9968 17.5196C16.0483 17.7117 16.174 17.8755 16.3463 17.975C16.5186 18.0744 16.7234 18.1013 16.9155 18.0498C17.1077 17.9983 17.2715 17.8725 17.3709 17.7002C17.4704 17.5279 17.4973 17.3232 17.4458 17.1311L17.091 15.8066L18.5018 16.6211L18.9705 18.3701C18.996 18.4652 19.04 18.5544 19.1 18.6325C19.16 18.7107 19.2348 18.7762 19.3201 18.8255C19.4054 18.8747 19.4996 18.9066 19.5972 18.9195C19.6949 18.9323 19.7941 18.9258 19.8893 18.9003C19.9844 18.8748 20.0736 18.8308 20.1517 18.7708C20.2299 18.7108 20.2954 18.6361 20.3447 18.5507C20.3939 18.4654 20.4259 18.3713 20.4387 18.2736C20.4515 18.1759 20.445 18.0767 20.4195 17.9816L20.0648 16.6571L21.3893 16.3023C21.4846 16.2767 21.574 16.2327 21.6523 16.1726C21.7306 16.1125 21.7963 16.0375 21.8456 15.952C21.895 15.8666 21.927 15.7722 21.9399 15.6743C21.9527 15.5765 21.9462 15.477 21.9206 15.3817C21.8951 15.2863 21.851 15.197 21.7909 15.1187C21.7308 15.0404 21.6559 14.9747 21.5704 14.9253C21.4849 14.876 21.3905 14.844 21.2927 14.8311C21.1948 14.8182 21.0954 14.8247 21 14.8503Z"
/>
</svg>
