<svg width="32" height="32" viewBox="0 0 32 32" fill="none" xmlns="http://www.w3.org/2000/svg">
<g>
<path d="M22.625 16.9398V15.0648H24.4503C24.0161 11.1254 20.8791 7.98845 16.9398 7.5542V9.37951H15.0648V7.5542C11.1253 7.98845 7.98845 11.1254 7.5542 15.0648H9.37951V16.9398H7.5542C7.98845 20.8791 11.1253 24.0161 15.0648 24.4503V22.625H16.9398V24.4503C20.8791 24.0161 24.0161 20.8791 24.4503 16.9398H22.625ZM16.0023 20.7523C13.3831 20.7523 11.2523 18.6214 11.2523 16.0023C11.2523 13.3831 13.3831 11.2523 16.0023 11.2523C18.6214 11.2523 20.7523 13.3831 20.7523 16.0023C20.7523 18.6214 18.6214 20.7523 16.0023 20.7523Z" fill="#29BD56"/>
<path d="M16 18.875C17.5878 18.875 18.875 17.5878 18.875 16C18.875 14.4122 17.5878 13.125 16 13.125C14.4122 13.125 13.125 14.4122 13.125 16C13.125 17.5878 14.4122 18.875 16 18.875Z" fill="#29BD56"/>
<path d="M27.3137 4.68625C24.2917 1.66431 20.2738 0 16 0C11.7262 0 7.70831 1.66431 4.68625 4.68625C1.66431 7.70831 0 11.7262 0 16C0 20.2738 1.66431 24.2917 4.68625 27.3137C7.70831 30.3357 11.7262 32 16 32C20.2738 32 24.2917 30.3357 27.3137 27.3137C30.3357 24.2917 32 20.2738 32 16C32 11.7262 30.3357 7.70831 27.3137 4.68625ZM16.9375 28.2523H15.0625V26.3322C10.0883 25.8845 6.1155 21.9116 5.66781 16.9375H3.74775V15.0625H5.66781C6.1155 10.0884 10.0883 6.1155 15.0625 5.66781V3.74775H16.9375V5.66781C21.9116 6.1155 25.8845 10.0884 26.3322 15.0625H28.2523V16.9375H26.3322C25.8845 21.9116 21.9116 25.8845 16.9375 26.3322V28.2523Z" fill="#29BD56"/>
</g>
<defs>
<clipPath id="clip0">
<rect width="32" height="32" fill="white"/>
</clipPath>
</defs>
</svg>
