<svg width="16" height="16" viewBox="0 0 16 16" fill="none" xmlns="http://www.w3.org/2000/svg">
<path d="M7.99967 7.33325C8.88373 7.33325 9.73158 7.68444 10.3567 8.30956C10.9818 8.93468 11.333 9.78253 11.333 10.6666V14.6666H9.99967V10.6666C9.9997 10.1564 9.80479 9.66558 9.45482 9.29441C9.10485 8.92325 8.62627 8.69985 8.11701 8.66992L7.99967 8.66659C7.48953 8.66656 6.99866 8.86147 6.6275 9.21144C6.25634 9.56141 6.03294 10.04 6.00301 10.5493L5.99967 10.6666V14.6666H4.66634V10.6666C4.66634 9.78253 5.01753 8.93468 5.64265 8.30956C6.26777 7.68444 7.11562 7.33325 7.99967 7.33325ZM3.66634 9.33325C3.85234 9.33325 4.03301 9.35525 4.20634 9.39592C4.09236 9.73525 4.02485 10.0885 4.00567 10.4459L3.99967 10.6666V10.7239C3.92304 10.6965 3.84334 10.6786 3.76234 10.6706L3.66634 10.6666C3.41775 10.6666 3.17808 10.7592 2.99406 10.9263C2.81004 11.0935 2.69487 11.3231 2.67101 11.5706L2.66634 11.6666V14.6666H1.33301V11.6666C1.33301 11.0477 1.57884 10.4543 2.01643 10.0167C2.45401 9.57909 3.0475 9.33325 3.66634 9.33325ZM12.333 9.33325C12.9518 9.33325 13.5453 9.57909 13.9829 10.0167C14.4205 10.4543 14.6663 11.0477 14.6663 11.6666V14.6666H13.333V11.6666C13.333 11.418 13.2404 11.1783 13.0733 10.9943C12.9061 10.8103 12.6764 10.6951 12.429 10.6713L12.333 10.6666C12.2163 10.6666 12.1043 10.6866 11.9997 10.7233V10.6666C11.9997 10.2226 11.9277 9.79592 11.7937 9.39725C11.9663 9.35525 12.147 9.33325 12.333 9.33325ZM3.66634 5.33325C4.10837 5.33325 4.53229 5.50885 4.84485 5.82141C5.15741 6.13397 5.33301 6.55789 5.33301 6.99992C5.33301 7.44195 5.15741 7.86587 4.84485 8.17843C4.53229 8.49099 4.10837 8.66659 3.66634 8.66659C3.22431 8.66659 2.80039 8.49099 2.48783 8.17843C2.17527 7.86587 1.99967 7.44195 1.99967 6.99992C1.99967 6.55789 2.17527 6.13397 2.48783 5.82141C2.80039 5.50885 3.22431 5.33325 3.66634 5.33325ZM12.333 5.33325C12.775 5.33325 13.199 5.50885 13.5115 5.82141C13.8241 6.13397 13.9997 6.55789 13.9997 6.99992C13.9997 7.44195 13.8241 7.86587 13.5115 8.17843C13.199 8.49099 12.775 8.66659 12.333 8.66659C11.891 8.66659 11.4671 8.49099 11.1545 8.17843C10.8419 7.86587 10.6663 7.44195 10.6663 6.99992C10.6663 6.55789 10.8419 6.13397 11.1545 5.82141C11.4671 5.50885 11.891 5.33325 12.333 5.33325ZM3.66634 6.66659C3.57794 6.66659 3.49315 6.7017 3.43064 6.76422C3.36813 6.82673 3.33301 6.91151 3.33301 6.99992C3.33301 7.08832 3.36813 7.17311 3.43064 7.23562C3.49315 7.29813 3.57794 7.33325 3.66634 7.33325C3.75475 7.33325 3.83953 7.29813 3.90204 7.23562C3.96456 7.17311 3.99967 7.08832 3.99967 6.99992C3.99967 6.91151 3.96456 6.82673 3.90204 6.76422C3.83953 6.7017 3.75475 6.66659 3.66634 6.66659ZM12.333 6.66659C12.2446 6.66659 12.1598 6.7017 12.0973 6.76422C12.0348 6.82673 11.9997 6.91151 11.9997 6.99992C11.9997 7.08832 12.0348 7.17311 12.0973 7.23562C12.1598 7.29813 12.2446 7.33325 12.333 7.33325C12.4214 7.33325 12.5062 7.29813 12.5687 7.23562C12.6312 7.17311 12.6663 7.08832 12.6663 6.99992C12.6663 6.91151 12.6312 6.82673 12.5687 6.76422C12.5062 6.7017 12.4214 6.66659 12.333 6.66659ZM7.99967 1.33325C8.70692 1.33325 9.3852 1.6142 9.88529 2.1143C10.3854 2.6144 10.6663 3.29267 10.6663 3.99992C10.6663 4.70716 10.3854 5.38544 9.88529 5.88554C9.3852 6.38563 8.70692 6.66659 7.99967 6.66659C7.29243 6.66659 6.61415 6.38563 6.11406 5.88554C5.61396 5.38544 5.33301 4.70716 5.33301 3.99992C5.33301 3.29267 5.61396 2.6144 6.11406 2.1143C6.61415 1.6142 7.29243 1.33325 7.99967 1.33325ZM7.99967 2.66659C7.64605 2.66659 7.30691 2.80706 7.05687 3.05711C6.80682 3.30716 6.66634 3.6463 6.66634 3.99992C6.66634 4.35354 6.80682 4.69268 7.05687 4.94273C7.30691 5.19278 7.64605 5.33325 7.99967 5.33325C8.3533 5.33325 8.69243 5.19278 8.94248 4.94273C9.19253 4.69268 9.33301 4.35354 9.33301 3.99992C9.33301 3.6463 9.19253 3.30716 8.94248 3.05711C8.69243 2.80706 8.3533 2.66659 7.99967 2.66659Z" />
</svg>
