<svg width="16" height="16" viewBox="0 0 16 16" fill="none" xmlns="http://www.w3.org/2000/svg">
<path d="M5.59213 11.8555C5.58783 11.8604 5.58352 11.8653 5.57929 11.8701C5.31985 12.1656 5.51872 12.6461 5.8999 12.6461H10.1008C10.482 12.6461 10.6809 12.1656 10.4215 11.8701C10.4172 11.8653 10.413 11.8604 10.4086 11.8555C10.0186 11.414 8.55044 10.1023 8.53155 10.0851C8.22585 9.80755 7.7749 9.80755 7.46924 10.0851C7.45034 10.1023 5.98219 11.414 5.59213 11.8555Z" />
<path d="M10.0033 7.54014C10.1255 7.42756 10.2653 7.30316 10.4133 7.17144C11.5049 6.19982 13 4.86917 13 3.47051V2.62891C13 1.73073 12.3098 1 11.4615 1H4.53846C3.69015 1 3 1.73073 3 2.62891V3.47051C3 4.86917 4.49508 6.19982 5.58674 7.17146C5.73474 7.30319 5.87451 7.42758 5.99674 7.54017C6.11287 7.64716 6.17949 7.79653 6.17949 7.95003C6.17949 8.1035 6.1129 8.25287 5.99674 8.35986C5.87451 8.47244 5.73474 8.59684 5.58674 8.72856C4.49508 9.70018 3 11.0308 3 12.4295V13.2711C3 14.1693 3.69015 14.9 4.53846 14.9H11.4615C12.3098 14.9 13 14.1693 13 13.2711C13 12.9712 12.7704 12.7281 12.4872 12.7281C12.2039 12.7281 11.9744 12.9712 11.9744 13.2711C11.9744 13.5705 11.7443 13.8141 11.4615 13.8141H4.53846C4.25569 13.8141 4.02564 13.5705 4.02564 13.2711V12.4295C4.02564 11.5366 5.416 10.2992 6.24669 9.55979C6.3981 9.42506 6.54113 9.29776 6.66992 9.17912C7.01005 8.8658 7.20513 8.41779 7.20513 7.95C7.20513 7.48218 7.01005 7.03417 6.66995 6.72085C6.54115 6.60224 6.39813 6.47494 6.24672 6.34018C5.416 5.60082 4.02564 4.36337 4.02564 3.47051V2.62891C4.02564 2.32951 4.25569 2.08594 4.53846 2.08594H11.4615C11.7443 2.08594 11.9744 2.32951 11.9744 2.62891V3.47051C11.9744 4.36337 10.584 5.60082 9.75331 6.34018C9.6019 6.47492 9.45887 6.60222 9.33008 6.72085C8.98995 7.03417 8.79487 7.48218 8.79487 7.95C8.79487 8.41782 8.98995 8.86582 9.33005 9.17912C9.46428 9.30272 9.61382 9.43526 9.77215 9.57559C10.2711 10.0178 10.8365 10.5189 11.2829 11.0521C11.4707 11.2765 11.7948 11.2972 12.0068 11.0983C12.2187 10.8994 12.2383 10.5563 12.0504 10.3318C11.5534 9.7381 10.9308 9.18629 10.4305 8.74287C10.276 8.60596 10.1301 8.47665 10.0033 8.35983C9.88713 8.25284 9.82051 8.10347 9.82051 7.95C9.82051 7.79653 9.88713 7.64713 10.0033 7.54014Z" />
<path d="M8.55836 6.02825C8.56762 6.0197 8.92559 5.69413 9.33321 5.31229C9.65267 5.01304 9.456 4.44727 9.03249 4.44727H7.02731C6.6038 4.44727 6.40713 5.01304 6.72659 5.31229C7.13421 5.69416 7.49218 6.0197 7.50144 6.02825C7.80557 6.30932 8.25421 6.30932 8.55836 6.02825Z"/>
</svg>
