<svg width="16" height="16" viewBox="0 0 16 16" fill="none" xmlns="http://www.w3.org/2000/svg">
<path d="M11.745 3.97997L12.7137 3.0113L13.6564 3.95397L12.6877 4.92263C13.6449 6.12075 14.107 7.63988 13.9791 9.16806C13.8512 10.6962 13.143 12.1174 12 13.1398C10.857 14.1621 9.36596 14.708 7.83304 14.6654C6.30012 14.6227 4.84172 13.9947 3.75736 12.9103C2.673 11.826 2.045 10.3676 2.00233 8.83464C1.95965 7.30172 2.50555 5.81065 3.5279 4.66764C4.55025 3.52464 5.97145 2.81647 7.49963 2.68858C9.0278 2.56069 10.5469 3.02279 11.745 3.97997ZM7.99971 13.3346C8.61255 13.3346 9.21938 13.2139 9.78557 12.9794C10.3518 12.7449 10.8662 12.4011 11.2995 11.9678C11.7329 11.5345 12.0766 11.02 12.3112 10.4538C12.5457 9.88764 12.6664 9.2808 12.6664 8.66797C12.6664 8.05513 12.5457 7.4483 12.3112 6.88211C12.0766 6.31593 11.7329 5.80148 11.2995 5.36814C10.8662 4.9348 10.3518 4.59105 9.78557 4.35653C9.21938 4.12201 8.61255 4.0013 7.99971 4.0013C6.76204 4.0013 5.57505 4.49297 4.69988 5.36814C3.82471 6.24331 3.33305 7.43029 3.33305 8.66797C3.33305 9.90564 3.82471 11.0926 4.69988 11.9678C5.57505 12.843 6.76204 13.3346 7.99971 13.3346ZM7.33305 5.33463H8.66638V9.33463H7.33305V5.33463ZM5.33305 0.667969H10.6664V2.0013H5.33305V0.667969Z" />
</svg>
