<svg width="20" height="20" viewBox="0 0 20 20" fill="none" xmlns="http://www.w3.org/2000/svg">
<path d="M2.50033 2.5H17.5003C17.7213 2.5 17.9333 2.5878 18.0896 2.74408C18.2459 2.90036 18.3337 3.11232 18.3337 3.33333V16.6667C18.3337 16.8877 18.2459 17.0996 18.0896 17.2559C17.9333 17.4122 17.7213 17.5 17.5003 17.5H2.50033C2.27931 17.5 2.06735 17.4122 1.91107 17.2559C1.75479 17.0996 1.66699 16.8877 1.66699 16.6667V3.33333C1.66699 3.11232 1.75479 2.90036 1.91107 2.74408C2.06735 2.5878 2.27931 2.5 2.50033 2.5ZM12.5003 5.83333V7.5H9.16699V9.16667H12.5003V10.8333L15.417 8.33333L12.5003 5.83333ZM7.50033 14.1667V12.5H10.8337V10.8333H7.50033V9.16667L4.58366 11.6667L7.50033 14.1667Z" />
</svg>
