<svg width="40" height="40" viewBox="0 0 40 40" fill="none" xmlns="http://www.w3.org/2000/svg">
<circle cx="20" cy="20" r="20" fill="#1374F6"/>
<path d="M22.997 10L29 16L29.001 20.26C28.0173 19.4435 26.7784 18.9977 25.5 19L25.279 19.004C24.0835 19.0522 22.9362 19.4888 22.011 20.2476C21.0859 21.0064 20.4333 22.046 20.152 23.209L20.136 23.283L20.106 23.303C19.5787 23.6563 19.1276 24.1117 18.7793 24.6423C18.431 25.1729 18.1926 25.768 18.0781 26.3922C17.9637 27.0165 17.9755 27.6574 18.1128 28.2771C18.2502 28.8967 18.5104 29.4826 18.878 30H11.993C11.7499 30 11.5153 29.9108 11.3336 29.7493C11.1518 29.5879 11.0356 29.3654 11.007 29.124L11 29.008V10.992C11 10.494 11.387 10.065 11.885 10.007L12.002 10H22.997ZM25.5 21C26.4283 21 27.3185 21.3687 27.9749 22.0251C28.6313 22.6815 29 23.5717 29 24.5L28.999 24.603C29.6246 24.7793 30.1675 25.1714 30.5315 25.7099C30.8955 26.2484 31.057 26.8983 30.9874 27.5446C30.9178 28.1908 30.6215 28.7914 30.1511 29.24C29.6808 29.6886 29.0668 29.9561 28.418 29.995L28.25 30H22.75L22.582 29.995C21.9333 29.9557 21.3196 29.6879 20.8495 29.2392C20.3795 28.7905 20.0835 28.1898 20.0142 27.5437C19.9448 26.8975 20.1064 26.2477 20.4705 25.7094C20.8346 25.1711 21.3775 24.7792 22.003 24.603L22 24.5C22 23.5717 22.3687 22.6815 23.0251 22.0251C23.6815 21.3687 24.5717 21 25.5 21Z" fill="white"/>
</svg>
