<svg width="20" height="20" viewBox="0 0 20 20" fill="none" xmlns="http://www.w3.org/2000/svg">
<path d="M9.99967 11.6666V18.3333H3.33301C3.33301 16.5651 4.03539 14.8694 5.28563 13.6192C6.53587 12.369 8.23156 11.6666 9.99967 11.6666ZM9.99967 10.8333C7.23717 10.8333 4.99967 8.59575 4.99967 5.83325C4.99967 3.07075 7.23717 0.833252 9.99967 0.833252C12.7622 0.833252 14.9997 3.07075 14.9997 5.83325C14.9997 8.59575 12.7622 10.8333 9.99967 10.8333ZM12.1622 15.6766C12.0565 15.2319 12.0565 14.7687 12.1622 14.3241L11.3355 13.8466L12.1688 12.4033L12.9955 12.8808C13.3273 12.5665 13.7284 12.3347 14.1663 12.2041V11.2499H15.833V12.2041C16.2763 12.3358 16.6763 12.5708 17.0038 12.8808L17.8305 12.4033L18.6638 13.8466L17.8372 14.3241C17.9427 14.7685 17.9427 15.2314 17.8372 15.6758L18.6638 16.1533L17.8305 17.5966L17.0038 17.1191C16.672 17.4334 16.271 17.6651 15.833 17.7958V18.7499H14.1663V17.7958C13.7284 17.6651 13.3273 17.4334 12.9955 17.1191L12.1688 17.5966L11.3355 16.1533L12.1622 15.6766ZM14.9997 14.1666C14.7787 14.1666 14.5667 14.2544 14.4104 14.4107C14.2541 14.5669 14.1663 14.7789 14.1663 14.9999C14.1663 15.2209 14.2541 15.4329 14.4104 15.5892C14.5667 15.7455 14.7787 15.8333 14.9997 15.8333C15.2207 15.8333 15.4326 15.7455 15.5889 15.5892C15.7452 15.4329 15.833 15.2209 15.833 14.9999C15.833 14.7789 15.7452 14.5669 15.5889 14.4107C15.4326 14.2544 15.2207 14.1666 14.9997 14.1666Z" />
</svg>
