<svg width="20" height="20" viewBox="0 0 20 20" fill="none" xmlns="http://www.w3.org/2000/svg">
<path fill-rule="evenodd" clip-rule="evenodd" d="M6.54045 5.12615C6.14993 4.73562 5.51676 4.73562 5.12624 5.12615C4.73571 5.51667 4.73571 6.14983 5.12624 6.54036L8.5858 9.99992L5.12624 13.4595C4.73571 13.85 4.73571 14.4832 5.12624 14.8737C5.51676 15.2642 6.14993 15.2642 6.54045 14.8737L10 11.4141L13.4596 14.8737C13.8501 15.2642 14.4833 15.2642 14.8738 14.8737C15.2643 14.4832 15.2643 13.85 14.8738 13.4595L11.4142 9.99992L14.8738 6.54036C15.2643 6.14983 15.2643 5.51667 14.8738 5.12615C14.4833 4.73562 13.8501 4.73562 13.4596 5.12615L10 8.58571L6.54045 5.12615Z"/>
</svg>
